<svg width="46" height="52" viewBox="0 0 46 52" fill="none" xmlns="http://www.w3.org/2000/svg">
<mask id="mask0_2262_24408" style="mask-type:alpha" maskUnits="userSpaceOnUse" x="0" y="0" width="46" height="52">
<rect width="46" height="52" fill="#D9D9D9"/>
</mask>
<g mask="url(#mask0_2262_24408)">
<path d="M5.18507 49.872C3.90507 49.872 3.26508 49.232 3.26508 47.952L2.49707 3.92C2.49707 2.64 3.11574 2 4.35307 2H10.8811C11.5211 2 12.1184 2.192 12.6731 2.576C13.2277 2.96 13.6757 3.408 14.0171 3.92L31.7451 31.184V4.112C31.7451 2.832 32.3637 2.192 33.6011 2.192H41.4091C42.6891 2.192 43.3077 2.832 43.2651 4.112L41.8571 48.144C41.7717 49.424 41.1317 50.064 39.9371 50.064H33.7931C33.1957 50.064 32.6197 49.8933 32.0651 49.552C31.5104 49.2533 31.0411 48.784 30.6571 48.144L13.8251 21.52L13.3771 47.952C13.3771 49.232 12.7371 49.872 11.4571 49.872H5.18507Z" fill="white"/>
</g>
</svg>
