<svg width="52" height="52" viewBox="0 0 52 52" fill="none" xmlns="http://www.w3.org/2000/svg">
<mask id="mask0_2262_24404" style="mask-type:alpha" maskUnits="userSpaceOnUse" x="0" y="0" width="52" height="52">
<rect width="52" height="52" fill="#D9D9D9"/>
</mask>
<g mask="url(#mask0_2262_24404)">
<path d="M28.152 32.68C27.0853 32.68 26.552 32.1467 26.552 31.08V24.552C26.552 23.4853 27.0853 22.952 28.152 22.952L46.008 23.08C47.1173 23.08 47.9493 23.336 48.504 23.848C49.1013 24.36 49.4427 25.2773 49.528 26.6C49.6987 29.8427 49.3147 32.9147 48.376 35.816C47.4373 38.7173 46.008 41.256 44.088 43.432C42.168 45.608 39.7573 47.336 36.856 48.616C33.9973 49.896 30.712 50.536 27 50.536C23.544 50.536 20.344 49.9387 17.4 48.744C14.4987 47.5493 11.9813 45.8853 9.848 43.752C7.71467 41.576 6.02933 38.9947 4.792 36.008C3.59733 33.0213 3 29.7147 3 26.088C3 22.4613 3.59733 19.1333 4.792 16.104C5.98667 13.032 7.62933 10.3867 9.72 8.168C11.8533 5.90666 14.328 4.15733 17.144 2.92C20.0027 1.64 23.0747 1 26.36 1C30.8827 1 34.808 1.85333 38.136 3.56C41.464 5.224 44.024 7.37867 45.816 10.024C46.1147 10.4507 46.264 10.92 46.264 11.432C46.264 11.9013 46.0293 12.3067 45.56 12.648L39.672 17.256C39.2453 17.5973 38.7547 17.7893 38.2 17.832C37.6453 17.832 37.1973 17.576 36.856 17.064C35.96 15.7413 34.7013 14.6533 33.08 13.8C31.5013 12.9467 29.4107 12.52 26.808 12.52C25.0587 12.52 23.4373 12.8613 21.944 13.544C20.4507 14.2267 19.128 15.208 17.976 16.488C16.8667 17.7253 15.992 19.2187 15.352 20.968C14.712 22.7173 14.392 24.6373 14.392 26.728C14.392 28.8613 14.7333 30.7813 15.416 32.488C16.0987 34.1947 17.0373 35.6453 18.232 36.84C19.4267 38.0347 20.8133 38.9733 22.392 39.656C23.9707 40.296 25.656 40.616 27.448 40.616C29.0693 40.616 30.5413 40.4027 31.864 39.976C33.1867 39.5493 34.3387 38.9733 35.32 38.248C36.344 37.48 37.176 36.6267 37.816 35.688C38.456 34.7067 38.9253 33.6613 39.224 32.552L28.152 32.68Z" fill="white"/>
</g>
</svg>
