<svg xmlns="http://www.w3.org/2000/svg" viewBox="0 0 923.1624 375.319"><defs><style>.cls-1{fill:#8e6140;}.cls-2{fill:#b29270;}.cls-3{fill:#72492d;}.cls-4{fill:none;stroke:#4c341e;stroke-miterlimit:10;stroke-width:3px;}</style></defs><g id="레이어_2" data-name="레이어 2"><g id="Layer_1" data-name="Layer 1"><polygon class="cls-1" points="923.162 313.584 0 313.584 95.725 0.28 827.438 0 923.162 313.584"/><path class="cls-2" d="M791.8245,29.3223H130.4506c-3.37,0-6.291,1.7619-7.036,4.244l-75.28,246.871c-.7046,2.3473,1.6582,4.5814,4.8451,4.5814H864.9075c5.2968,0,9.21-3.7294,7.9986-7.6237L796.661,32.2164C796.1337,30.5208,794.1307,29.3223,791.8245,29.3223Z"/><polygon class="cls-3" points="0 375.319 109.109 375.319 251.144 375.319 672.018 375.319 814.054 375.319 923.162 375.319 923.162 313.794 0 313.794 0 375.319"/><path class="cls-4" d="M864.5954,285.0187H51.8042c-2.9814,0-5.186-2.0965-4.5108-4.29L123.5628,33.02c.6667-2.1651,3.2216-3.6974,6.1649-3.6974H790.7345c2.9433,0,5.4982,1.5323,6.1649,3.6974l75.3492,244.7209C873.3943,281.4616,869.6538,285.0187,864.5954,285.0187Z"/><line class="cls-4" x1="150.9777" y1="285.0187" x2="209.5711" y2="29.3223"/><line class="cls-4" x1="254.458" y1="285.0187" x2="293.8847" y2="28.4099"/><line class="cls-4" x1="358.2877" y1="285.0187" x2="377.8489" y2="28.4099"/><line class="cls-4" x1="772.9528" y1="285.0187" x2="714.3594" y2="29.3223"/><line class="cls-4" x1="669.4725" y1="285.0187" x2="630.0458" y2="28.4099"/><line class="cls-4" x1="565.6428" y1="285.0187" x2="546.0816" y2="28.4099"/><line class="cls-4" x1="461.9659" y1="285.0187" x2="461.9646" y2="28.4099"/><line class="cls-4" x1="111.6779" y1="71.6199" x2="810.3529" y2="71.6199"/><line class="cls-4" x1="98.6457" y1="113.9462" x2="822.0771" y2="113.9462"/><line class="cls-4" x1="85.6135" y1="157.0564" x2="834.8487" y2="157.0564"/><line class="cls-4" x1="73.281" y1="198.7982" x2="848.4642" y2="198.7982"/><line class="cls-4" x1="59.2463" y1="241.9084" x2="861.216" y2="241.9084"/></g></g></svg>