<svg xmlns="http://www.w3.org/2000/svg" viewBox="0 0 102.7273 128.9412"><defs><style>.cls-1{fill:#221e1f;}</style></defs><g id="레이어_2" data-name="레이어 2"><g id="Layer_1" data-name="Layer 1"><g id="_13_Layer1_0_FILL" data-name="      13 Layer1 0 FILL"><path class="cls-1" d="M5.3788,83.9347q11.7024,27.3125,35.2525,37.5968,23.4155,10.43,34.9385,6.1781,11.5142-4.25,15.41-14.4152c18.6686,1.3506,14.9512-8.8233-10.19-15.6458C61.2475,92.3454,38.7683,81.8638,34.7242,59.7122c-1.7984-9.8509,1.4147-17.4117,5.0345-26.2489,4.2511-10.3787,6.616-21.9774,8.034-33.061L46.8714,0Q21.8965,7.7372,7.7122,32.0737-6.4408,56.7165,5.3788,83.9347Z"/></g><path class="cls-1" d="M86.2534,92.8443a2.7109,2.7109,0,0,0-2.5869-2.4417,30.1837,30.1837,0,0,0-7.83.3924,40.8922,40.8922,0,0,0-7.7709,1.92,1.5014,1.5014,0,0,0,.7976,2.8929c.5617-.1141,1.125-.223,1.6875-.3348a1.9462,1.9462,0,0,0-.0015.364,1.5444,1.5444,0,0,0,1.5,1.5,1.5984,1.5984,0,0,0,1.4521-1.0727,1.8361,1.8361,0,0,0,1.295,1.2,1.4959,1.4959,0,0,0,1.4829,1.3631c1.7668-.09,2.37-.1448,2.37.727a1.51,1.51,0,0,0,1.5,1.5c2.6421-.28,4.3059-2.179,5.2456-4.542A8.4107,8.4107,0,0,0,86.2534,92.8443Z"/></g></g></svg>