<svg xmlns="http://www.w3.org/2000/svg" viewBox="0 0 93.3173 59.3892"><defs><style>.cls-1{isolation:isolate;}.cls-2{opacity:0.2;mix-blend-mode:multiply;}.cls-3,.cls-9{opacity:0.8;}.cls-4{fill:#f97a7a;}.cls-5,.cls-9{fill:#fff;}.cls-6{fill:#fc9a9a;}.cls-7{fill:#fcd2d2;}.cls-8{fill:#f65252;}</style></defs><g class="cls-1"><g id="레이어_2" data-name="레이어 2"><g id="Layer_1" data-name="Layer 1"><g class="cls-2"><path d="M48.356,57.889a57.6094,57.6094,0,0,1-28.5854-7.25,4.5456,4.5456,0,0,1-2.03-1.1923c-.1367-.1192-.2661-.2349-.3892-.3243a34.7787,34.7787,0,0,1-5.13-4.3213c-4.3565-4.7392-6.2867-9.9956-5.5811-15.2006C8.8834,13.0419,30.4039,5.5,49.45,5.5c13.415,0,25.5127,3.6123,33.19,9.91,10.167,8.34,10.1021,16.2383,8.2573,21.396-4.2993,12.0191-22.5888,21.083-42.541,21.083Z"/><path d="M49.45,7c12.1782,0,24.3386,3.0891,32.239,9.57,22.8484,18.7427-3.5252,39.8194-33.3333,39.8194a56.03,56.03,0,0,1-28.1025-7.2029c-.7217,0-1.4409-.857-2.02-1.2779a33.2986,33.2986,0,0,1-4.9067-4.1223c-4.439-4.8288-5.7869-9.6455-5.1993-13.9847C10.1283,15.0245,29.8155,7,49.45,7m0-3C38.88,4,28.713,6.1954,20.8233,10.1818,11.6471,14.818,6.2288,21.4631,5.1541,29.3988c-.5346,3.9485.066,10.002,5.9634,16.4176A36.0412,36.0412,0,0,0,16.47,50.3358c.0905.0667.1845.1538.2851.2416a6.2145,6.2145,0,0,0,2.4641,1.4736A59.1713,59.1713,0,0,0,48.356,59.3892c20.5559,0,39.4519-9.4916,43.9541-22.0783,1.6431-4.5937,2.6954-13.6981-8.7182-23.06C75.6507,7.7362,63.2064,4,49.45,4Z"/><path d="M14.2242,25.8177c-2.2891-5.6129,8.88-11.7664,14.7079-14.0437,23.2434-9.0819,29.59,5.0317,5.8364,14.3134C29.02,28.3334,16.5147,31.4335,14.2242,25.8177Z"/><path d="M48.0793,12.59c1.3037,3.1973-4.9052,8.6282-13.8682,12.13s-17.2858,3.7489-18.59.5519,4.9052-8.6282,13.8685-12.13S46.7756,9.3923,48.0793,12.59Z"/><path d="M58.6314,44.0668a2.8963,2.8963,0,0,1-2.0527-.8506l-7.4136-7.4136-7.4126,7.4126a2.9015,2.9015,0,0,1-4.1059.001,2.9082,2.9082,0,0,1-.001-4.1084l7.4126-7.4146-7.4126-7.4126a2.9051,2.9051,0,0,1,4.1094-4.1074l7.41,7.4151,7.4126-7.4126a2.9051,2.9051,0,1,1,4.1094,4.1074L53.274,31.6967l7.4107,7.4111a2.9053,2.9053,0,0,1-2.0533,4.959Z"/><path d="M39.7,19.8224a2.3986,2.3986,0,0,1,1.7014.7046l7.7637,7.7684,7.7658-7.7661a2.4051,2.4051,0,0,1,3.4026,3.4l-7.7661,7.766h-.0024l7.7661,7.7661a2.4043,2.4043,0,1,1-3.4,3.4l-7.7658-7.766-7.7661,7.766a2.4043,2.4043,0,1,1-3.4-3.4l7.7661-7.7684L37.9991,23.927A2.4046,2.4046,0,0,1,39.7,19.8224m0-1a3.4042,3.4042,0,0,0-2.4082,5.8118l7.0591,7.059-7.0594,7.0613a3.4043,3.4043,0,1,0,4.8164,4.8124L49.1654,36.51l7.0588,7.0589a3.4042,3.4042,0,1,0,4.8142-4.8143l-7.0576-7.0577,7.06-7.06a3.4051,3.4051,0,0,0-4.8167-4.8145L49.1656,26.881,42.109,19.82A3.3835,3.3835,0,0,0,39.7,18.8224Z"/><ellipse class="cls-3" cx="39.1059" cy="21.5332" rx="1.0257" ry="0.8105" transform="translate(-5.3647 25.4473) rotate(-33.8688)"/></g><path class="cls-4" d="M43.356,53.889a57.6094,57.6094,0,0,1-28.5854-7.25,4.5456,4.5456,0,0,1-2.03-1.1923c-.1367-.1192-.2661-.2349-.3892-.3243a34.7787,34.7787,0,0,1-5.13-4.3213C2.8653,36.0619.9351,30.8055,1.6407,25.6005,3.8834,9.0419,25.4039,1.5,44.45,1.5c13.415,0,25.5127,3.6123,33.19,9.91,10.167,8.34,10.1021,16.2383,8.2573,21.396-4.2993,12.0191-22.5888,21.083-42.541,21.083Z"/><path class="cls-5" d="M44.45,3c12.1782,0,24.3386,3.0891,32.239,9.57C99.5377,31.3125,73.1641,52.3892,43.356,52.3892a56.03,56.03,0,0,1-28.1025-7.2029c-.7217,0-1.4409-.857-2.0205-1.2779a33.2986,33.2986,0,0,1-4.9067-4.1223c-4.439-4.8288-5.7869-9.6455-5.1993-13.9847C5.1283,11.0245,24.8155,3,44.45,3m0-3C33.88,0,23.713,2.1954,15.8233,6.1818,6.6471,10.818,1.2288,17.4631.1541,25.3988-.38,29.3473.22,35.4008,6.1175,41.8164A36.0412,36.0412,0,0,0,11.47,46.3358c.0905.0667.1845.1538.2851.2416a6.2145,6.2145,0,0,0,2.4641,1.4736A59.1713,59.1713,0,0,0,43.356,55.3892c20.5559,0,39.4519-9.4916,43.9541-22.0783,1.6431-4.5937,2.6954-13.6981-8.7182-23.06C70.6507,3.7362,58.2064,0,44.45,0Z"/><path class="cls-6" d="M9.2242,21.8177c-2.2891-5.6129,8.88-11.7664,14.7079-14.0437,23.2434-9.0819,29.59,5.0317,5.8364,14.3134C24.02,24.3334,11.5147,27.4335,9.2242,21.8177Z"/><path class="cls-7" d="M43.0793,8.59c1.3037,3.1973-4.9052,8.6282-13.8682,12.13s-17.2858,3.7489-18.59.5519,4.9052-8.6282,13.8685-12.13S41.7756,5.3923,43.0793,8.59Z"/><path class="cls-8" d="M53.6314,40.0668a2.8963,2.8963,0,0,1-2.0527-.8506l-7.4136-7.4136-7.4126,7.4126a2.9015,2.9015,0,0,1-4.1059.001,2.9082,2.9082,0,0,1-.001-4.1084l7.4126-7.4146-7.4126-7.4126a2.9051,2.9051,0,0,1,4.1094-4.1074l7.41,7.4151,7.4126-7.4126a2.9051,2.9051,0,1,1,4.1094,4.1074L48.274,27.6967l7.4107,7.4111a2.9053,2.9053,0,0,1-2.0533,4.959Z"/><path class="cls-5" d="M34.7,15.8224a2.3986,2.3986,0,0,1,1.7014.7046l7.7637,7.7684,7.7658-7.7661a2.4051,2.4051,0,0,1,3.4026,3.4l-7.7661,7.766h-.0024l7.7661,7.7661a2.4043,2.4043,0,1,1-3.4,3.4l-7.7658-7.766-7.7661,7.766a2.4043,2.4043,0,1,1-3.4-3.4l7.7661-7.7684L32.9991,19.927A2.4046,2.4046,0,0,1,34.7,15.8224m0-1a3.4042,3.4042,0,0,0-2.4082,5.8118l7.0591,7.059-7.0594,7.0613a3.4043,3.4043,0,1,0,4.8164,4.8124L44.1654,32.51l7.0588,7.0589a3.4042,3.4042,0,1,0,4.8142-4.8143l-7.0576-7.0577,7.06-7.06a3.4051,3.4051,0,0,0-4.8167-4.8145L44.1656,22.881,37.109,15.82A3.3835,3.3835,0,0,0,34.7,14.8224Z"/><ellipse class="cls-9" cx="34.1059" cy="17.5332" rx="1.0257" ry="0.8105" transform="translate(-3.9839 21.9821) rotate(-33.8688)"/></g></g></g></svg>