<?xml version="1.0" encoding="utf-8"?>
<!-- Generator: Adobe Illustrator 25.0.1, SVG Export Plug-In . SVG Version: 6.00 Build 0)  -->
<svg version="1.1" id="레이어_1" xmlns="http://www.w3.org/2000/svg" xmlns:xlink="http://www.w3.org/1999/xlink" x="0px"
	 y="0px" viewBox="0 0 225.9 225.9" style="enable-background:new 0 0 225.9 225.9;" xml:space="preserve">
<style type="text/css">
	.st0{fill:#B0DFDB;}
	.st1{fill:#FFFFFF;}
	.st2{fill:none;stroke:#FFFFFF;stroke-miterlimit:10;stroke-dasharray:3.5,3;}
	.st3{fill:none;stroke:#0088CB;stroke-miterlimit:10;}
</style>
<g id="Layer_2">
	<g id="Layer_1-2">
		<path class="st0" d="M112.9,225.1C51.1,224.9,1.2,174.7,1.5,112.9S51.9,1.3,113.7,1.5C175.2,1.7,225,51.6,225.1,113.2
			C224.9,175.1,174.7,225.2,112.9,225.1z"/>
		<path class="st1" d="M112.9,225.9C50.5,225.8,0,175.2,0,112.9C0,50.5,50.6,0,113,0s112.9,50.6,112.9,113c0,30-11.9,58.7-33.2,79.9
			C171.6,214.1,142.8,226,112.9,225.9z M112.9,2C51.3,2,1.4,52,1.5,113.5c0,61.5,49.9,111.4,111.5,111.4S224.4,175,224.3,113.4
			c0-29.6-11.8-57.9-32.7-78.8C170.8,13.7,142.4,1.9,112.9,2z"/>
		<line class="st2" x1="70.6" y1="-42.2" x2="155.2" y2="268.3"/>
		<line class="st2" x1="-12.5" y1="12.3" x2="238.4" y2="213.8"/>
		<line class="st2" x1="-47.8" y1="105.3" x2="273.7" y2="120.8"/>
		<line class="st2" x1="-21.6" y1="201.3" x2="247.5" y2="24.8"/>
		<line class="st2" x1="55.9" y1="263.5" x2="170" y2="-37.4"/>
		<path class="st3" d="M177.5,136.5"/>
	</g>
</g>
</svg>
