<svg xmlns="http://www.w3.org/2000/svg" viewBox="0 0 5.974 8.8115"><defs><style>.cls-1{fill:none;stroke:#727171;stroke-linecap:round;stroke-linejoin:round;stroke-width:0.375px;}</style></defs><g id="레이어_2" data-name="레이어 2"><g id="레이어_1-2" data-name="레이어 1"><polygon class="cls-1" points="2.232 0.188 5.786 6.689 3.743 7.818 0.188 1.316 2.232 0.188"/><polygon class="cls-1" points="5.518 8.624 5.784 6.769 3.805 7.854 5.518 8.624"/><path class="cls-1" d="M5.4535,8.17a.48.48,0,0,0-.152.067.1007.1007,0,0,0-.084.058.2925.2925,0,0,0,.149.104c.041-.026.043-.057.004-.094a.0557.0557,0,0,0-.08-.017.0886.0886,0,0,0,0,.051"/><line class="cls-1" x1="3.8709" y1="6.5047" x2="1.1809" y2="1.6237"/></g></g></svg>