<svg xmlns="http://www.w3.org/2000/svg" viewBox="0 0 324.893 324.1532"><defs><style>.cls-1{fill:#ffe17f;}.cls-2{fill:#ffc233;}.cls-3{fill:none;stroke:#fff;stroke-miterlimit:10;stroke-dasharray:3.5 3;}</style></defs><g id="레이어_2" data-name="레이어 2"><g id="레이어_1-2" data-name="레이어 1"><g id="Layer_2" data-name="Layer 2"><g id="Layer_1-2" data-name="Layer 1-2"><path class="cls-1" d="M162.4506,323.6924a161.4866,161.4866,0,1,1,63.05-12.69A162.28,162.28,0,0,1,162.4506,323.6924Z"/><path class="cls-2" d="M162.4506,323.6924v-.46a161.4077,161.4077,0,0,1-161.53-161.08,158.2808,158.2808,0,0,1,12.72-62.65,161.5915,161.5915,0,0,1,310.36,62.65,158.2908,158.2908,0,0,1-12.73,62.65,161.6667,161.6667,0,0,1-148.82,98.43v.92a162.15,162.15,0,0,0,149.72-225.11,160.43,160.43,0,0,0-34.85-51.44,162.4175,162.4175,0,0,0-229.74,0,161.6809,161.6809,0,0,0,0,229.1,163.8489,163.8489,0,0,0,51.58,34.76,161.6675,161.6675,0,0,0,63.29,12.69Z"/><line class="cls-3" x1="120.2306" y1="6.7524" x2="204.8306" y2="317.2624"/><line class="cls-3" x1="37.0506" y1="61.2724" x2="288.0106" y2="262.7524"/><line class="cls-3" x1="1.8006" y1="154.2624" x2="323.2606" y2="169.7524"/><line class="cls-3" x1="27.9506" y1="250.2224" x2="297.1206" y2="73.8024"/><line class="cls-3" x1="105.5006" y1="312.4824" x2="219.5706" y2="11.5424"/></g></g></g></g></svg>