<svg id="레이어_1" data-name="레이어 1" xmlns="http://www.w3.org/2000/svg" viewBox="0 0 121.121 121.121"><defs><style>.cls-1{fill:#52a5dc;}.cls-2{fill:#0083c9;}.cls-3{fill:#fff;}</style></defs><path class="cls-1" d="M12.896,96.745a59.8437,59.8437,0,1,1,83.85,11.481,59.8439,59.8439,0,0,1-83.85-11.481"/><path class="cls-2" d="M12.896,96.745l.569-.431a59.1236,59.1236,0,1,1,47.14,23.379,58.8637,58.8637,0,0,1-47.14-23.379l-.569.431-.569.432A60.5487,60.5487,0,1,0,0,60.605,60.4673,60.4673,0,0,0,12.327,97.177Z"/><polyline class="cls-2" points="96.959 12.892 60.464 60.006 61.122 60.516 97.617 13.402"/><polyline class="cls-2" points="60.772 60.06 3.285 77.942 3.532 78.737 61.019 60.854"/><polyline class="cls-2" points="117.021 78.278 60.683 60.163 60.428 60.956 116.766 79.07"/><polyline class="cls-2" points="60.86 60.267 24.638 12.553 23.975 13.056 60.197 60.77"/><polyline class="cls-2" points="60.143 60.578 57.209 120.441 58.04 120.482 60.974 60.618"/><path class="cls-3" d="M69.53,60.593a9.2845,9.2845,0,1,1-9.285-9.285,9.2847,9.2847,0,0,1,9.285,9.285"/><path class="cls-2" d="M69.53,60.593h-.714a8.57,8.57,0,1,1-2.51-6.061,8.54,8.54,0,0,1,2.51,6.061h1.428a9.9985,9.9985,0,1,0-9.999,9.998,10,10,0,0,0,9.999-9.998Z"/></svg>