<svg id="레이어_1" data-name="레이어 1" xmlns="http://www.w3.org/2000/svg" xmlns:xlink="http://www.w3.org/1999/xlink" viewBox="0 0 283.465 283.465"><defs><style>.cls-1{fill:none;}.cls-2{clip-path:url(#clip-path);}.cls-3{fill:#ffe67a;}.cls-4{fill:#fff;}</style><clipPath id="clip-path"><rect class="cls-1" width="283.465" height="283.465"/></clipPath></defs><g class="cls-2"><path class="cls-3" d="M141.7324,282.957A141.3056,141.3056,0,0,1,86.7414,11.521a141.3051,141.3051,0,0,1,109.983,260.331,140.4109,140.4109,0,0,1-54.992,11.105"/></g><g class="cls-2"><polyline class="cls-4" points="104.565 4.914 104.835 5.918 105.639 5.703 105.368 4.698"/><path class="cls-4" d="M176.7457,273.6439l.541,2.014.803-.217-.54-2.013Zm-1.081-4.026.541,2.013.803-.216-.541-2.013Zm-1.081-4.026.541,2.013.803-.216-.541-2.012Zm-1.081-4.025.54,2.012.804-.215-.541-2.013Zm-1.082-4.026.541,2.013.803-.216-.54-2.013Zm-1.082-4.027.541,2.013.804-.216-.541-2.013Zm-1.081-4.026.54,2.013.805-.215-.542-2.013Zm-1.081-4.025.54,2.013.804-.216-.541-2.013Zm-1.082-4.026.541,2.013.803-.216-.54-2.013Zm-1.081-4.027.541,2.014.803-.216-.541-2.013Zm-1.081-4.025.54,2.012.804-.215-.541-2.013Zm-1.081-4.026.54,2.013.803-.216-.54-2.013Zm-1.082-4.026.541,2.013.803-.216-.54-2.013Zm-1.081-4.026.541,2.013.803-.216-.541-2.012Zm-1.082-4.026.541,2.013.804-.216-.541-2.013Zm-1.082-4.026.541,2.013.804-.216-.541-2.013Zm-1.081-4.026.541,2.013.803-.216-.54-2.013Zm-1.081-4.026.541,2.013.803-.216-.541-2.012Zm-1.081-4.025.54,2.012.804-.215-.541-2.014Zm-1.082-4.027.541,2.013.803-.216-.54-2.013Zm-1.081-4.026.541,2.013.803-.216-.541-2.013Zm-1.081-4.026.54,2.013.804-.216-.541-2.012Zm-1.081-4.025.54,2.012.804-.215-.541-2.013Zm-1.083-4.026.542,2.013.803-.216-.54-2.014Zm-1.081-4.027.541,2.013.804-.216-.542-2.013Zm-1.081-4.026.54,2.013.804-.216-.541-2.012Zm-1.081-4.025.54,2.012.804-.215-.541-2.013Zm-1.082-4.026.541,2.013.803-.216-.54-2.013Zm-1.081-4.027.541,2.014.803-.217-.541-2.013Zm-1.081-4.026.54,2.013.804-.216-.541-2.012Zm-1.082-4.025.541,2.012.803-.215-.54-2.013Zm-1.081-4.026.541,2.013.803-.216-.54-2.013Zm-1.082-4.026.541,2.013.804-.216-.541-2.013Zm-1.081-4.027.54,2.013.805-.215-.542-2.013Zm-1.082-4.025.541,2.012.803-.215-.54-2.013Zm-1.081-4.026.541,2.013.803-.216-.54-2.013Zm-1.081-4.026.541,2.013.803-.216-.541-2.013Zm-1.081-4.027.54,2.014.804-.216-.541-2.013Zm-1.082-4.025.541,2.013.803-.216-.54-2.013Zm-1.081-4.026.541,2.013.803-.216-.541-2.013Zm-1.081-4.026.54,2.013.804-.216-.541-2.013Zm-1.082-4.026.54,2.013.805-.215-.541-2.013Zm-1.082-4.026.541,2.013.804-.216-.541-2.013Zm-1.081-4.026.541,2.013.803-.216-.541-2.013Zm-1.081-4.026.54,2.013.804-.216-.541-2.013Zm-1.081-4.026.54,2.013.804-.216-.541-2.013Zm-1.082-4.026.541,2.013.803-.216-.54-2.013Zm-1.081-4.0259.541,2.0129.803-.216-.541-2.013Zm-1.081-4.0261.54,2.013.804-.216-.541-2.013Zm-1.082-4.026.541,2.013.803-.215-.54-2.013Zm-1.082-4.026.541,2.013.804-.215-.54-2.013Zm-1.081-4.026.541,2.013.804-.215-.542-2.013Zm-1.081-4.026.54,2.013.804-.215-.541-2.013Zm-1.082-4.025.541,2.012.803-.215-.54-2.013Zm-1.081-4.026.541,2.013.803-.216-.54-2.013Zm-1.081-4.026.541,2.013.803-.216-.541-2.013Zm-1.081-4.026.54,2.013.804-.216-.541-2.013Zm-1.082-4.026.541,2.013.803-.216-.54-2.013Zm-1.081-4.026.541,2.013.803-.216-.541-2.013Zm-1.082-4.026.541,2.013.804-.216-.541-2.013Zm-1.081-4.026.54,2.013.805-.216-.542-2.013Zm-1.082-4.026.541,2.013.803-.216-.54-2.013Zm-1.081-4.026.541,2.013.803-.216-.541-2.013Zm-1.081-4.026.54,2.013.804-.216-.541-2.0129Zm-1.081-4.026.54,2.013.804-.2159-.541-2.013Zm-1.082-4.026.541,2.013.803-.2159-.54-2.013Zm-1.081-4.026.541,2.013.803-.2159-.541-2.013Z"/><polyline class="cls-4" points="177.827 277.67 178.096 278.674 178.901 278.458 178.63 277.454"/><polyline class="cls-4" points="189.642 8.296 189.288 9.274 190.069 9.557 190.424 8.58"/><path class="cls-4" d="M94.8162,269.8954l-.71,1.9591.782.284.71-1.96Zm1.421-3.9189-.711,1.96.782.283.71-1.959Zm1.42-3.919-.71,1.959.782.284.711-1.96Zm1.421-3.919-.711,1.96.783.283.71-1.96Zm1.42-3.919-.71,1.959.783.284.71-1.96Zm1.421-3.92-.711,1.96.783.284.71-1.96Zm1.421-3.918-.711,1.959.783.283.71-1.959Zm1.421-3.92-.711,1.96.782.284.71-1.96Zm1.42-3.918-.71,1.958.782.284.71-1.959Zm1.421-3.92-.71,1.96.781.283.711-1.959Zm1.42-3.919-.71,1.959.782.284.71-1.959Zm1.421-3.919-.71,1.96.781.283.711-1.96Zm1.42-3.919-.71,1.959.782.284.71-1.959Zm1.421-3.919-.71,1.959.782.284.711-1.96Zm1.42-3.919-.71,1.959.783.283.71-1.958Zm1.421-3.92-.71,1.96.782.284.711-1.96Zm1.421-3.918-.711,1.958.783.284.71-1.959Zm1.421-3.92-.711,1.96.783.283.71-1.959Zm1.421-3.919-.711,1.959.782.284.71-1.959Zm1.42-3.919-.71,1.96.782.283.71-1.96Zm1.421-3.919-.711,1.959.782.284.71-1.959Zm1.42-3.919-.71,1.959.782.284.71-1.96Zm1.421-3.919-.711,1.959.782.283.71-1.958Zm1.42-3.92-.71,1.96.782.284.71-1.96Zm1.421-3.918-.71,1.958.782.284.711-1.959Zm1.42-3.92-.71,1.96.783.283.71-1.959Zm1.421-3.919-.71,1.959.782.284.711-1.959Zm1.42-3.919-.71,1.96.783.283.71-1.96Zm1.422-3.919-.711,1.959.782.284.711-1.959Zm1.42-3.919-.71,1.959.782.284.71-1.96Zm1.421-3.919-.71,1.959.781.283.711-1.959Zm1.421-3.92-.711,1.96.782.284.71-1.96Zm1.42-3.918-.71,1.959.782.283.71-1.96Zm1.421-3.92-.711,1.96.782.284.71-1.96Zm1.42-3.919-.71,1.959.782.284.71-1.96Zm1.421-3.919-.711,1.96.783.283.71-1.96Zm1.42-3.919-.71,1.959.783.284.71-1.96Zm1.421-3.919-.711,1.959.783.284.71-1.96Zm1.42-3.919-.71,1.959.783.283.71-1.959Zm1.422-3.92-.711,1.96.782.284.711-1.96Zm1.42-3.918-.71,1.959.782.283.71-1.96Zm1.421-3.92-.71,1.96.781.284.711-1.96Zm1.42-3.919-.71,1.959.782.284.71-1.96Zm1.421-3.919-.71,1.96.781.283.711-1.96Zm1.42-3.919-.71,1.959.782.284.71-1.96Zm1.421-3.919-.71,1.959.781.284.711-1.96Zm1.421-3.919-.711,1.959.783.284.71-1.96Zm1.42-3.92-.71,1.96.783.283.71-1.959Zm1.421-3.919-.711,1.96.783.283.71-1.959Zm1.42-3.919-.71,1.96.783.283.71-1.959Zm1.422-3.919-.711,1.96.782.283.71-1.959Zm1.42-3.919-.71,1.959.782.284.71-1.96Zm1.421-3.919-.711,1.959.782.284.71-1.96Zm1.42-3.919-.71,1.959.782.284.71-1.96Zm1.421-3.92-.71,1.96.781.284.711-1.96Zm1.42-3.919-.71,1.96.782.283.71-1.959Zm1.421-3.919-.71,1.96.781.283.711-1.959Zm1.42-3.919-.71,1.96.783.283.71-1.959Zm1.421-3.919-.71,1.96.782.283.711-1.959Zm1.42-3.919-.71,1.959.783.284.71-1.96Zm1.421-3.919-.71,1.959.782.284.711-1.96Zm1.422-3.919-.711,1.959.782.284.71-1.96Zm1.42-3.92-.71,1.96.782.284.71-1.96Zm1.421-3.919-.711,1.96.782.283.71-1.959Zm1.42-3.919-.71,1.96.782.283.71-1.959Zm1.421-3.919-.711,1.96.782.283.71-1.959Zm1.42-3.919-.71,1.96.782.283.71-1.959Z"/><polyline class="cls-4" points="93.396 273.815 93.041 274.793 93.824 275.076 94.178 274.099"/><polyline class="cls-4" points="257.634 60.107 256.782 60.703 257.259 61.385 258.111 60.789"/><path class="cls-4" d="M29.6233,219.5983l-1.708,1.194.476.682,1.708-1.195Zm3.415-2.39-1.707,1.194.476.683,1.708-1.196Zm3.416-2.389-1.708,1.194.477.682,1.708-1.195Zm3.416-2.389-1.708,1.194.477.682,1.708-1.195Zm3.416-2.39-1.708,1.194.477.683,1.708-1.195Zm3.416-2.389-1.708,1.194.477.682,1.708-1.195Zm3.416-2.39-1.708,1.195.477.681,1.708-1.194Zm3.416-2.39-1.708,1.195.477.682,1.708-1.194Zm3.416-2.389-1.708,1.195.477.681,1.708-1.194Zm3.416-2.389-1.708,1.195.477.681,1.708-1.194Zm3.416-2.39-1.708,1.196.477.681,1.708-1.194Zm3.416-2.389-1.708,1.195.477.681,1.707-1.194Zm3.416-2.389-1.708,1.195.476.681,1.708-1.194Zm3.415-2.39-1.708,1.196.477.681,1.708-1.194Zm3.416-2.389-1.708,1.195.477.681,1.708-1.194Zm3.416-2.389-1.708,1.194.477.682,1.708-1.195Zm3.416-2.39-1.708,1.195.477.682,1.708-1.195Zm3.416-2.389-1.708,1.194.477.682,1.708-1.195Zm3.416-2.389-1.708,1.194.477.682,1.708-1.195Zm3.416-2.39-1.708,1.195.477.682,1.708-1.195Zm3.416-2.389-1.708,1.194.477.682,1.708-1.195Zm3.416-2.389-1.708,1.194.477.682,1.708-1.195Zm3.416-2.39-1.709,1.195.477.682,1.709-1.195Zm3.416-2.389-1.708,1.194.476.682,1.709-1.195Zm3.416-2.39-1.708,1.195.476.682,1.709-1.195Zm3.415-2.39-1.707,1.196.477.681,1.707-1.194Zm3.416-2.389-1.707,1.195.477.681,1.707-1.194Zm3.416-2.389-1.707,1.195.477.681,1.707-1.194Zm3.416-2.39-1.708,1.196.477.681,1.708-1.194Zm3.417-2.389-1.709,1.195.477.681,1.708-1.194Zm3.416-2.389-1.709,1.195.477.681,1.709-1.194Zm3.415-2.39-1.708,1.196.477.681,1.708-1.194Zm3.416-2.389-1.708,1.195.477.681,1.708-1.194Zm3.416-2.389-1.708,1.195.477.681,1.708-1.195Zm3.416-2.39-1.708,1.195.476.682,1.709-1.195Zm3.416-2.389-1.708,1.194.476.682,1.709-1.195Zm3.416-2.389-1.708,1.194.477.682,1.708-1.195Zm3.415-2.39-1.707,1.195.477.682,1.707-1.195Zm3.416-2.389-1.707,1.194.477.682,1.707-1.195Zm3.417-2.389-1.708,1.194.477.682,1.707-1.195Zm3.416-2.39-1.709,1.195.477.682,1.708-1.195Zm3.416-2.389-1.709,1.194.477.682,1.709-1.195Zm3.416-2.39-1.709,1.195.477.681,1.709-1.194Zm3.415-2.39-1.708,1.196.477.681,1.708-1.194Zm3.416-2.389-1.708,1.195.477.681,1.708-1.194Zm3.416-2.389-1.707,1.195.476.681,1.708-1.194Zm3.416-2.39-1.708,1.196.477.681,1.708-1.194Zm3.416-2.389-1.708,1.195.477.681,1.708-1.194Zm3.416-2.389-1.708,1.195.477.681,1.708-1.194Zm3.415-2.39-1.707,1.196.477.681,1.707-1.194Zm3.417-2.389-1.708,1.195.477.681,1.707-1.194Zm3.416-2.389-1.708,1.195.477.681,1.708-1.195Zm3.416-2.39-1.709,1.195.477.682,1.709-1.195Zm3.416-2.389-1.709,1.195.477.681,1.709-1.194Zm3.416-2.389-1.709,1.194.477.682,1.709-1.195Zm3.415-2.39-1.708,1.195.477.682,1.708-1.195Zm3.416-2.3889-1.707,1.1939.476.682,1.708-1.194Zm3.416-2.39-1.707,1.1951.477.682,1.707-1.195Zm3.416-2.3889-1.707,1.195.476.6809,1.708-1.1939Zm3.416-2.3891-1.708,1.1941.477.682,1.708-1.195Zm3.416-2.39-1.708,1.1949.477.682,1.708-1.195Zm3.416-2.3891-1.708,1.195.477.6811,1.707-1.1941Zm3.416-2.39-1.708,1.195.477.682,1.708-1.195Zm3.416-2.389-1.708,1.1951.477.682,1.708-1.195Zm3.416-2.3889-1.709,1.1939.477.682,1.709-1.1939Zm3.416-2.39-1.709,1.195.477.682,1.709-1.195Zm3.416-2.3891-1.708,1.195.476.6811,1.709-1.1941Z"/><polyline class="cls-4" points="26.207 221.987 25.355 222.583 25.832 223.264 26.684 222.669"/><polyline class="cls-4" points="283.465 141.27 282.425 141.27 282.425 142.102 283.465 142.102"/><path class="cls-4" d="M5.209,141.27H3.125v.832H5.209Zm4.169,0H7.294v.832H9.378Zm4.169,0H11.463v.832h2.084Zm4.168,0H15.631v.832h2.084Zm4.169,0H19.8v.832h2.084Zm4.169,0H23.969v.832h2.084Zm4.168,0H28.137v.832h2.084Zm4.169,0H32.306v.832H34.39Zm4.168,0H36.474v.832h2.084Zm4.169,0H40.643v.832h2.084Zm4.169,0H44.812v.832h2.084Zm4.168,0H48.98v.832h2.084Zm4.169,0H53.149v.832h2.084Zm4.169,0H57.318v.832h2.084Zm4.168,0H61.486v.832H63.57Zm4.169,0H65.655v.832h2.084Zm4.169,0H69.824v.832h2.084Zm4.168,0H73.992v.832h2.084Zm4.169,0H78.161v.832h2.084Zm4.169,0H82.33v.832h2.084Zm4.168,0H86.498v.832h2.084Zm4.169,0H90.667v.832h2.084Zm4.169,0H94.836v.832H96.92Zm4.169,0H99.005v.832h2.084Zm4.168,0h-2.085v.832h2.085Zm4.169,0h-2.084v.832h2.084Zm4.169,0H111.51v.832h2.085Zm4.168,0h-2.084v.832h2.084Zm4.169,0h-2.084v.832h2.084Zm4.169,0h-2.085v.832h2.085Zm4.168,0h-2.085v.832h2.085Zm4.169,0h-2.084v.832h2.084Zm4.169,0h-2.084v.832h2.084Zm4.168,0h-2.084v.832h2.084Zm4.169,0h-2.085v.832h2.085Zm4.169,0h-2.084v.832h2.084Zm4.168,0h-2.085v.832h2.085Zm4.169,0h-2.084v.832h2.084Zm4.169,0h-2.084v.832h2.084Zm4.168,0h-2.084v.832h2.084Zm4.169,0h-2.084v.832h2.084Zm4.169,0H174.04v.832h2.085Zm4.168,0h-2.084v.832h2.084Zm4.169,0h-2.085v.832h2.085Zm4.168,0h-2.084v.832h2.084Zm4.169,0h-2.084v.832h2.084Zm4.169,0h-2.085v.832h2.085Zm4.168,0h-2.084v.832h2.084Zm4.169,0h-2.084v.832h2.084Zm4.169,0h-2.085v.832h2.085Zm4.168,0h-2.084v.832h2.084Zm4.168,0h-2.084v.832h2.084Zm4.169,0h-2.085v.832h2.085Zm4.169,0h-2.084v.832h2.084Zm4.168,0h-2.084v.832h2.084Zm4.169,0H232.4v.832h2.085Zm4.169,0H236.57v.832h2.084Zm4.168,0h-2.084v.832h2.084Zm4.169,0h-2.084v.832h2.084Zm4.169,0h-2.084v.832h2.084Zm4.168,0h-2.084v.832h2.084Zm4.169,0h-2.085v.832h2.085Zm4.169,0h-2.085v.832h2.085Zm4.168,0H265.75v.832h2.084Zm4.169,0h-2.085v.832h2.085Zm4.169,0h-2.085v.832h2.085Zm4.168,0h-2.084v.832h2.084Z"/><polyline class="cls-4" points="1.04 141.27 0 141.27 0 142.102 1.04 142.102"/><polyline class="cls-4" points="32.907 50.883 33.703 51.552 34.238 50.914 33.442 50.246"/><path class="cls-4" d="M246.0343,229.7776l1.596,1.34.535-.637-1.596-1.34Zm-3.194-2.68,1.596,1.34.535-.637-1.596-1.34Zm-3.192-2.679,1.596,1.339.535-.637-1.596-1.34Zm-3.194-2.681,1.597,1.34.535-.637-1.597-1.341Zm-3.192-2.68,1.596,1.34.535-.637-1.596-1.34Zm-3.193-2.68,1.596,1.34.535-.637-1.596-1.34Zm-3.193-2.68,1.596,1.34.535-.637-1.596-1.341Zm-3.193-2.68,1.596,1.34.535-.638-1.596-1.34Zm-3.193-2.681,1.597,1.341.535-.637-1.598-1.34Zm-3.193-2.68,1.596,1.34.535-.636-1.596-1.341Zm-3.193-2.679,1.597,1.34.535-.638-1.597-1.34Zm-3.193-2.681,1.597,1.341.534-.638-1.596-1.34Zm-3.193-2.68,1.597,1.34.535-.637-1.597-1.34Zm-3.192-2.68,1.596,1.34.535-.637-1.596-1.34Zm-3.194-2.68,1.596,1.34.535-.637-1.596-1.34Zm-3.192-2.68,1.596,1.34.535-.637-1.596-1.341Zm-3.194-2.68,1.597,1.34.535-.637-1.597-1.34Zm-3.192-2.681,1.596,1.341.535-.637-1.597-1.34Zm-3.193-2.679,1.596,1.339.535-.636-1.596-1.341Zm-3.194-2.68,1.597,1.34.535-.638-1.597-1.34Zm-3.192-2.681,1.596,1.341.535-.638-1.596-1.339Zm-3.193-2.68,1.597,1.34.535-.637-1.598-1.34Zm-3.193-2.679,1.596,1.339.535-.637-1.596-1.34Zm-3.193-2.681,1.597,1.341.534-.638-1.596-1.34Zm-3.193-2.68,1.597,1.34.535-.638-1.597-1.339Zm-3.193-2.68,1.596,1.34.535-.637-1.596-1.34Zm-3.192-2.68,1.596,1.34.535-.637-1.596-1.34Zm-3.194-2.68,1.596,1.34.535-.638-1.596-1.34Zm-3.193-2.68,1.597,1.34.535-.638-1.597-1.339Zm-3.192-2.681,1.596,1.341.535-.637-1.597-1.34Zm-3.194-2.68,1.597,1.34.535-.637-1.597-1.34Zm-3.192-2.679,1.596,1.34.535-.638-1.596-1.34Zm-3.194-2.681,1.598,1.341.534-.638-1.597-1.34Zm-3.192-2.68,1.596,1.34.535-.637-1.596-1.34Zm-3.193-2.68,1.596,1.34.535-.637-1.596-1.34Zm-3.193-2.68,1.596,1.34.535-.637-1.596-1.34Zm-3.193-2.68,1.596,1.34.535-.638-1.596-1.34Zm-3.193-2.68,1.597,1.34.535-.637-1.598-1.34Zm-3.193-2.681,1.596,1.34.535-.636-1.596-1.34Zm-3.193-2.679,1.597,1.34.535-.638-1.597-1.34Zm-3.193-2.68,1.597,1.34.534-.638-1.596-1.34Zm-3.193-2.681,1.597,1.34.535-.636-1.597-1.34Zm-3.192-2.68,1.596,1.34.535-.637-1.597-1.34Zm-3.194-2.679,1.597,1.34.534-.638-1.596-1.34Zm-3.192-2.681,1.596,1.34.535-.637-1.596-1.34Zm-3.194-2.68,1.597,1.34.535-.637-1.597-1.34Zm-3.192-2.68,1.596,1.34.535-.637-1.596-1.34Zm-3.193-2.68,1.596,1.34.535-.637-1.596-1.341Zm-3.193-2.68,1.596,1.34.535-.638-1.596-1.34Zm-3.193-2.68,1.596,1.34.535-.638-1.596-1.339Zm-3.193-2.681,1.596,1.34.535-.636-1.596-1.341Zm-3.193-2.68,1.596,1.341.535-.638-1.596-1.34Zm-3.193-2.68,1.597,1.34.534-.637-1.596-1.34Zm-3.193-2.68,1.597,1.34.534-.637-1.596-1.34Zm-3.193-2.68,1.597,1.34.534-.637-1.596-1.34Zm-3.193-2.68,1.597,1.34.535-.637-1.597-1.34Zm-3.193-2.68,1.597,1.34.535-.6371-1.597-1.34Zm-3.193-2.68,1.597,1.34.535-.6371-1.597-1.34Zm-3.193-2.68,1.597,1.34.535-.637-1.597-1.34Zm-3.193-2.68,1.597,1.34.535-.6369-1.597-1.3411Zm-3.192-2.68,1.596,1.34.535-.638-1.597-1.34Zm-3.193-2.68,1.596,1.34.535-.638-1.596-1.34Zm-3.193-2.681,1.596,1.34.535-.6371-1.596-1.34Zm-3.193-2.68,1.596,1.34.535-.637-1.596-1.34Zm-3.193-2.68,1.596,1.34.535-.6369-1.596-1.34Zm-3.193-2.68,1.596,1.34.535-.6369-1.596-1.34Zm-3.193-2.68,1.596,1.34.535-.637-1.596-1.34Z"/><polyline class="cls-4" points="249.226 232.458 250.023 233.126 250.558 232.489 249.761 231.82"/></g><rect class="cls-1" width="283.465" height="283.465"/></svg>