<svg xmlns="http://www.w3.org/2000/svg" viewBox="0 0 94.3542 57.5971"><defs><style>.cls-1{isolation:isolate;}.cls-2{opacity:0.2;mix-blend-mode:multiply;}.cls-3{fill:#212121;}.cls-4{fill:#333;}.cls-5{fill:#5e5e5e;}</style></defs><g class="cls-1"><g id="레이어_2" data-name="레이어 2"><g id="Layer_1" data-name="Layer 1"><g class="cls-2"><path d="M84.9708,14.3851C62.5748-3.9863,8.66,2.7619,5.1411,28.7441c-.6378,4.7088.825,9.936,5.6421,15.1763a36.154,36.154,0,0,0,5.3248,4.4734c.6289.4568,1.41,1.3867,2.1927,1.3867h0C57.4332,72.4561,117.68,41.2163,84.9708,14.3851Z"/><path d="M9.6351,24.0639C7.0119,17.6319,19.8108,10.58,26.49,7.9706,53.1253-2.4367,60.3984,13.7367,33.1778,24.373,26.5905,26.9468,12.26,30.4994,9.6351,24.0639Z"/><path d="M48.4313,8.9053c1.494,3.6639-5.6212,9.8874-15.8922,13.9006s-19.8087,4.2961-21.303.6325,5.6212-9.8875,15.8925-13.9006S46.9373,5.2413,48.4313,8.9053Z"/></g><path class="cls-3" d="M79.9708,10.3851C57.5748-7.9863,3.66-1.2381.1411,24.7441-.4967,29.4529.9661,34.68,5.7832,39.92a36.154,36.154,0,0,0,5.3248,4.4734c.6289.4568,1.41,1.3867,2.1927,1.3867h0C52.4332,68.4561,112.68,37.2163,79.9708,10.3851Z"/><path class="cls-4" d="M4.6351,20.0639C2.0119,13.6319,14.8108,6.58,21.49,3.9706,48.1253-6.4367,55.3984,9.7367,28.1778,20.373,21.5905,22.9468,7.26,26.4994,4.6351,20.0639Z"/><path class="cls-5" d="M43.4313,4.9053c1.494,3.6639-5.6212,9.8874-15.8922,13.9006S7.73,23.102,6.2361,19.4384,11.8573,9.5509,22.1286,5.5378,41.9373,1.2413,43.4313,4.9053Z"/></g></g></g></svg>