<svg xmlns="http://www.w3.org/2000/svg" viewBox="0 0 375.9172 462.8372"><defs><style>.cls-1{fill:#bed62f;}.cls-2{fill:#f2f09d;}.cls-3{fill:#fff;}.cls-4{fill:#9ab73b;}.cls-5{fill:#221e1f;}.cls-6{fill:none;stroke:#221e1f;stroke-linecap:round;stroke-linejoin:round;stroke-width:6px;}.cls-7{fill:#f28cb9;}</style></defs><g id="레이어_2" data-name="레이어 2"><g id="Layer_1" data-name="Layer 1"><path class="cls-1" d="M40.8014,180.2439c-.1935-2.7456.0169-16.8585.0169-19.6593,0-61.3063,47.4754-112.3041,110.2851-123.445,15.9991-7.1343,19.1214-18.7265,23.0181-25.2,4.3512-7.25,5.6557-13.2875,13.9287-11.677S314.3428,45.9076,312.9289,160.5846c-.0252,1.8439-.1262,9.6394-.21,11.46,2.0788,30.3731,27.5376,115.2061,27.5376,115.2061a151.4366,151.4366,0,0,1,13.4911,61.991c0,90.2937-79.1875,113.5956-176.8736,113.5956S0,439.5353,0,349.2416c0-22.0252,7.0443-42.2143,13.5163-62.0532,22.5384-69.0474,24.4152-68.884,27.2851-106.9445"/><path class="cls-2" d="M178.2894,38.198a4.5909,4.5909,0,0,1-2.6574-.8328,3.8491,3.8491,0,0,1-.8183-5.6747,54.1326,54.1326,0,0,0,9.78-16.7975,4.4064,4.4064,0,0,1,5.3689-2.8413,4.02,4.02,0,0,1,3.0879,4.95c-.1112.3743-2.7714,9.3278-11.2795,19.6071A4.5,4.5,0,0,1,178.2894,38.198Z"/><ellipse class="cls-2" cx="94.5768" cy="201.6265" rx="31.9354" ry="18.3054"/><ellipse class="cls-2" cx="262.3864" cy="201.6265" rx="31.9354" ry="18.3054"/><circle class="cls-3" cx="133.7769" cy="163.2876" r="30.9989"/><path class="cls-4" d="M133.7785,196.4788A33.1913,33.1913,0,1,1,166.9669,163.29,33.2271,33.2271,0,0,1,133.7785,196.4788Zm0-62.003A28.8118,28.8118,0,1,0,162.5874,163.29,28.8441,28.8441,0,0,0,133.7785,134.4758Z"/><circle class="cls-5" cx="139.3947" cy="175.2876" r="14.8111"/><circle class="cls-3" cx="134.6189" cy="170.8442" r="4.4433"/><circle class="cls-3" cx="221.884" cy="163.2876" r="30.9989"/><path class="cls-4" d="M221.8817,196.4788A33.1913,33.1913,0,1,1,255.07,163.29,33.2272,33.2272,0,0,1,221.8817,196.4788Zm0-62.003A28.8118,28.8118,0,1,0,250.6906,163.29,28.8441,28.8441,0,0,0,221.8817,134.4758Z"/><circle class="cls-5" cx="217.9215" cy="175.2876" r="14.8111"/><circle class="cls-3" cx="212.7657" cy="170.8442" r="4.4433"/><path class="cls-5" d="M198.1423,118.9992a2.9919,2.9919,0,0,1-1.1405-.2281,2.9218,2.9218,0,0,1-1.5454-3.832c.1141-.2737,2.92-6.746,9.3065-8.5366,4.2882-1.2146,8.9586-.0228,13.857,3.5013a2.9214,2.9214,0,0,1-3.41,4.7445c-3.3987-2.4407-6.3925-3.3132-8.8731-2.6232-3.65,1.0208-5.4857,5.1494-5.5028,5.195A2.9267,2.9267,0,0,1,198.1423,118.9992Z"/><path class="cls-5" d="M161.7947,118.9992a2.9123,2.9123,0,0,1-2.64-1.6708c-.0342-.0684-2.167-4.4194-6.0161-5.36-2.4236-.5817-5.2463.2908-8.3542,2.64a2.92,2.92,0,0,1-3.5127-4.6646c4.5962-3.4671,9.0841-4.6874,13.31-3.6325,6.5692,1.6366,9.7284,8.2515,9.86,8.5309a2.9205,2.9205,0,0,1-1.4085,3.8834A2.891,2.891,0,0,1,161.7947,118.9992Z"/><path class="cls-6" d="M148.3364,204.7391s28.0574,23.4783,59.193,0"/><path class="cls-7" d="M184.0561,214.5873a16.5689,16.5689,0,0,0,4.482,11.9782,14.888,14.888,0,0,0,9.3722,4.2861,10.6443,10.6443,0,0,0,11.6787-8.4681,17.31,17.31,0,0,0,.04-8.2813c-.1851-.7316-3.0917-7.54-3.3794-7.4065l-10.8913,5.0869Z"/><path class="cls-5" d="M181.8061,214.5873a19.5758,19.5758,0,0,0,4.0735,12.3685,17.0284,17.0284,0,0,0,11.4263,6.0879,12.9805,12.9805,0,0,0,11.775-4.6591,17.242,17.242,0,0,0,3.0456-13.1742,27.2922,27.2922,0,0,0-2.6225-7.1993c-.94-2.0606-1.9654-4.3627-4.6715-3.1269-1.9149.8746-3.8156,1.7821-5.723,2.673a41.1755,41.1755,0,0,0-4.8481,2.2644c.2528-.1625.7336-.2387.1358-.1186-.3822.0768-.76.1887-1.1387.2826l-3.9074.97-5.8932,1.4624c-2.8092.6972-1.6192,5.038,1.1963,4.3393l10.1266-2.513c2.85-.7073,5.5121-2.293,8.1605-3.53l4.4437-2.0755-1.1356.3072.023.0012-1.1356-.3072c-.1983-.1365-.7877-1.0654-.557-.4692a4.8187,4.8187,0,0,0,.248.4572c.2261.4339.4327.8785.6382,1.3224.4571.9874,1.0281,2.2975,1.3229,3.012a13.6951,13.6951,0,0,1,.7317,8.4068c-.7765,3.3758-2.9419,6.2322-6.4257,7.04a12.0834,12.0834,0,0,1-10.2249-2.745c-3.2236-2.8012-4.565-6.8941-4.5639-11.0763C186.3068,211.6917,181.8068,211.687,181.8061,214.5873Z"/><path class="cls-5" d="M191.9812,213.4637a22.13,22.13,0,0,1,2.426,2.4708c.0824.0985.1625.1988.2445.2976.2691.3241-.0921-.134.0631.0758.172.2322.3446.4636.51.7008q.4956.711.9354,1.459.4146.7059.7764,1.441c.1277.2594.2479.5217.3677.7848.2552.56-.0916-.2494.0374.0826.0464.12.096.2381.1425.3578a22.187,22.187,0,0,1,1.0118,3.4118,2.2658,2.2658,0,0,0,2.7677,1.5715,2.3033,2.3033,0,0,0,1.5715-2.7678,24.2457,24.2457,0,0,0-7.6719-13.0677,2.25,2.25,0,0,0-3.182,3.182Z"/><g id="_2_Layer1_0_FILL" data-name="      2 Layer1 0 FILL"><path class="cls-5" d="M328.7519,254.46q-4.5039-16.7871-9.4171-42.7863l27.6371,14.33q27.8418,17.6058,28.8654,35.007a37.415,37.415,0,0,1-6.7558,24.3616l-7.7793,8.1887,5.5274,1.4331q5.5275,2.6613,6.1416,9.2123,1.8424,18.22-16.1728,20.6767-13.5114,1.8425-21.905-9.0077-10.02-12.8733-2.2519-27.6371,7.7459-14.8132,6.3463-21.086Q337.6,261.1088,328.7519,254.46Z"/></g></g></g></svg>