<svg xmlns="http://www.w3.org/2000/svg" viewBox="0 0 93.3173 59.3892"><defs><style>.cls-1{isolation:isolate;}.cls-2{opacity:0.2;mix-blend-mode:multiply;}.cls-3{stroke:#000;}.cls-3,.cls-9{stroke-miterlimit:10;stroke-width:1.2px;}.cls-10,.cls-4{opacity:0.8;}.cls-5{fill:#45b1f4;}.cls-10,.cls-6{fill:#fff;}.cls-7{fill:#6bcaf9;}.cls-8{fill:#bbf1ff;}.cls-9{fill:#309cee;stroke:#fff;}</style></defs><g class="cls-1"><g id="레이어_2" data-name="레이어 2"><g id="Layer_1" data-name="Layer 1"><g class="cls-2"><path d="M48.356,57.889a57.6094,57.6094,0,0,1-28.5854-7.25,4.5456,4.5456,0,0,1-2.03-1.1923c-.1367-.1192-.2661-.2349-.3892-.3243a34.7787,34.7787,0,0,1-5.13-4.3213C7.8656,40.0624,5.9356,34.806,6.6407,29.6005,8.8831,13.0419,30.4039,5.5,49.45,5.5c13.415,0,25.5127,3.6123,33.19,9.91,10.167,8.34,10.1021,16.2383,8.2573,21.396-4.2993,12.0191-22.5888,21.083-42.541,21.083Z"/><path d="M49.45,7c12.1782,0,24.3386,3.0891,32.239,9.57,22.8484,18.7427-3.5252,39.8194-33.3333,39.8194a56.03,56.03,0,0,1-28.1025-7.2029c-.7217,0-1.4409-.857-2.02-1.2779a33.2986,33.2986,0,0,1-4.9067-4.1223c-4.439-4.8288-5.7869-9.6455-5.1993-13.9847C10.1283,15.0245,29.8155,7,49.45,7m0-3C38.88,4,28.713,6.1954,20.8233,10.1818,11.6471,14.818,6.2288,21.4631,5.1541,29.3988c-.5346,3.9485.066,10.002,5.9634,16.4176A36.0412,36.0412,0,0,0,16.47,50.3358c.0905.0667.1845.1538.2851.2416a6.2145,6.2145,0,0,0,2.4641,1.4736A59.1713,59.1713,0,0,0,48.356,59.3892c20.5559,0,39.4519-9.4916,43.9541-22.0783,1.6431-4.5937,2.6954-13.6981-8.7182-23.06C75.6507,7.7362,63.2064,4,49.45,4Z"/><path d="M14.2242,25.8177c-2.2891-5.6129,8.88-11.7664,14.7079-14.0437,23.2434-9.0819,29.59,5.0317,5.8364,14.3134C29.02,28.3334,16.5147,31.4335,14.2242,25.8177Z"/><path d="M48.0793,12.59c1.3038,3.1973-4.9052,8.6282-13.8682,12.13s-17.2858,3.7489-18.59.5519,4.9052-8.6282,13.8685-12.13S46.7757,9.3923,48.0793,12.59Z"/><path class="cls-3" d="M49.1666,47.0539A15.3594,15.3594,0,1,1,64.5258,31.6948,15.3768,15.3768,0,0,1,49.1666,47.0539Zm0-23.963A8.6037,8.6037,0,1,0,57.77,31.6948,8.6135,8.6135,0,0,0,49.1666,23.0909Z"/><ellipse class="cls-4" cx="43.3458" cy="19.9831" rx="1.2224" ry="0.966" transform="matrix(0.8303, -0.5573, 0.5573, 0.8303, -3.7813, 27.5472)"/></g><path class="cls-5" d="M43.356,53.889a57.6094,57.6094,0,0,1-28.5854-7.25,4.5456,4.5456,0,0,1-2.03-1.1923c-.1367-.1192-.2661-.2349-.3892-.3243a34.7787,34.7787,0,0,1-5.13-4.3213C2.8656,36.0624.9356,30.806,1.6407,25.6005,3.8831,9.0419,25.4039,1.5,44.45,1.5c13.415,0,25.5127,3.6123,33.19,9.91,10.167,8.34,10.1021,16.2383,8.2573,21.396-4.2993,12.0191-22.5888,21.083-42.541,21.083Z"/><path class="cls-6" d="M44.45,3c12.1782,0,24.3386,3.0891,32.239,9.57C99.5377,31.3125,73.1641,52.3892,43.356,52.3892a56.03,56.03,0,0,1-28.1025-7.2029c-.7217,0-1.4409-.857-2.0205-1.2779a33.2986,33.2986,0,0,1-4.9067-4.1223c-4.439-4.8288-5.7869-9.6455-5.1993-13.9847C5.1283,11.0245,24.8155,3,44.45,3m0-3C33.88,0,23.713,2.1954,15.8233,6.1818,6.6471,10.818,1.2288,17.4631.1541,25.3988-.38,29.3473.22,35.4008,6.1175,41.8164A36.0412,36.0412,0,0,0,11.47,46.3358c.0905.0667.1845.1538.2851.2416a6.2145,6.2145,0,0,0,2.4641,1.4736A59.1713,59.1713,0,0,0,43.356,55.3892c20.5559,0,39.4519-9.4916,43.9541-22.0783,1.6431-4.5937,2.6954-13.6981-8.7182-23.06C70.6507,3.7362,58.2064,0,44.45,0Z"/><path class="cls-7" d="M9.2242,21.8177c-2.2891-5.6129,8.88-11.7664,14.7079-14.0437,23.2434-9.0819,29.59,5.0317,5.8364,14.3134C24.02,24.3334,11.5147,27.4335,9.2242,21.8177Z"/><path class="cls-8" d="M43.0793,8.59c1.3038,3.1973-4.9052,8.6282-13.8682,12.13s-17.2858,3.7489-18.59.5519,4.9052-8.6282,13.8685-12.13S41.7757,5.3923,43.0793,8.59Z"/><path class="cls-9" d="M44.1666,43.0539A15.3594,15.3594,0,1,1,59.5258,27.6948,15.3768,15.3768,0,0,1,44.1666,43.0539Zm0-23.963A8.6037,8.6037,0,1,0,52.77,27.6948,8.6135,8.6135,0,0,0,44.1666,19.0909Z"/><ellipse class="cls-10" cx="38.3458" cy="15.9831" rx="1.2224" ry="0.966" transform="matrix(0.8303, -0.5573, 0.5573, 0.8303, -2.4006, 24.082)"/></g></g></g></svg>