<svg width="42" height="52" viewBox="0 0 42 52" fill="none" xmlns="http://www.w3.org/2000/svg">
<mask id="mask0_2262_24406" style="mask-type:alpha" maskUnits="userSpaceOnUse" x="0" y="0" width="42" height="52">
<rect width="42" height="52" fill="#D9D9D9"/>
</mask>
<g mask="url(#mask0_2262_24406)">
<path d="M13.0837 39.848C17.2223 39.9333 21.0623 39.848 24.6037 39.592C28.1877 39.336 31.7503 38.9093 35.2917 38.312C36.529 38.0987 37.233 38.5253 37.4037 39.592L38.3637 44.904C38.577 46.1413 38.129 46.888 37.0197 47.144C34.417 47.6987 31.8997 48.1467 29.4677 48.488C27.0357 48.8293 24.5823 49.0853 22.1077 49.256C19.6757 49.4267 17.1797 49.5333 14.6197 49.576C12.1023 49.6613 9.457 49.6827 6.68367 49.64C3.73967 49.5547 2.24633 48.0827 2.20366 45.224L1.43566 5.608C1.393 4.11467 1.79833 3.00533 2.65167 2.28C3.505 1.512 4.593 1.128 5.91567 1.128L35.9317 1C36.6143 1 37.1477 1.21333 37.5317 1.64C37.9583 2.024 38.1717 2.55733 38.1717 3.24V8.488C38.1717 9.17066 37.9583 9.72533 37.5317 10.152C37.1477 10.536 36.6143 10.728 35.9317 10.728L13.0197 11.048V20.584L33.3717 20.2C34.0543 20.2 34.5877 20.4133 34.9717 20.84C35.3983 21.224 35.6117 21.7573 35.6117 22.44V27.688C35.6117 28.3707 35.3983 28.9253 34.9717 29.352C34.5877 29.736 34.0543 29.928 33.3717 29.928L13.0197 30.12L13.0837 39.848Z" fill="white"/>
</g>
</svg>
