<svg width="40" height="52" viewBox="0 0 40 52" fill="none" xmlns="http://www.w3.org/2000/svg">
<mask id="mask0_2262_24412" style="mask-type:alpha" maskUnits="userSpaceOnUse" x="0" y="0" width="40" height="52">
<rect width="40" height="52" fill="#D9D9D9"/>
</mask>
<g mask="url(#mask0_2262_24412)">
<path d="M12.3812 40.9379C14.7278 40.8526 16.8825 40.4899 18.8452 39.8499C20.8078 39.1673 22.4719 38.2073 23.8372 36.9699C25.2025 35.7326 26.2692 34.1753 27.0372 32.2979C27.8052 30.4206 28.1892 28.2233 28.1892 25.7059C28.1892 23.6579 27.8265 21.8019 27.1012 20.1379C26.4185 18.4313 25.3945 16.9806 24.0292 15.7859C22.7065 14.5486 21.0638 13.6099 19.1012 12.9699C17.1812 12.3299 14.9838 12.0313 12.5092 12.0739L12.3812 40.9379ZM1.37316 5.67394C1.3305 4.18061 1.73583 3.09261 2.58917 2.40994C3.4425 1.6846 4.53051 1.27927 5.85318 1.19394C10.9732 0.767273 15.5599 1.04461 19.6132 2.02594C23.7092 2.96461 27.1652 4.47927 29.9812 6.56994C32.8398 8.61794 35.0372 11.1993 36.5732 14.3139C38.1092 17.4286 38.8772 20.9273 38.8772 24.8099C38.8772 28.6926 38.2372 32.2339 36.9572 35.4339C35.7198 38.6339 33.6932 41.3646 30.8772 43.6259C28.1038 45.8873 24.4985 47.5939 20.0612 48.7459C15.6665 49.9406 10.3119 50.4526 3.99719 50.2819C2.71719 50.2393 2.07717 49.5993 2.07717 48.3619L1.37316 5.67394Z" fill="white"/>
</g>
</svg>
