<svg width="44" height="52" viewBox="0 0 44 52" fill="none" xmlns="http://www.w3.org/2000/svg">
<mask id="mask0_2262_24405" style="mask-type:alpha" maskUnits="userSpaceOnUse" x="0" y="0" width="44" height="52">
<rect width="44" height="52" fill="#D9D9D9"/>
</mask>
<g mask="url(#mask0_2262_24405)">
<path d="M5.62705 49.7263C4.34705 49.7263 3.70705 49.0863 3.70705 47.8063L3.00305 5.75826C2.96038 4.26493 3.36571 3.17693 4.21905 2.49426C5.07238 1.81159 6.16038 1.40626 7.48305 1.27826C12.6031 0.851594 17.1257 0.915594 21.0511 1.47026C25.0191 1.98226 28.3471 2.96359 31.0351 4.41426C33.7231 5.82226 35.7497 7.67826 37.1151 9.98226C38.5231 12.2436 39.2271 14.8889 39.2271 17.9183C39.2271 21.1183 38.4377 23.8916 36.8591 26.2383C35.2804 28.5849 33.0831 30.4409 30.2671 31.8063C31.5044 33.9823 32.9124 35.7956 34.4911 37.2463C36.1124 38.6969 37.9471 39.9343 39.9951 40.9583C40.8057 41.3849 41.2537 41.8969 41.3391 42.4943C41.4671 43.0916 41.3604 43.6249 41.0191 44.0943L37.4351 49.2783C36.9657 49.9609 36.4537 50.3236 35.8991 50.3663C35.3871 50.4516 34.8537 50.3449 34.299 50.0463C31.1844 48.4676 28.5177 46.3343 26.299 43.6463C24.0804 40.9583 22.3737 37.8009 21.1791 34.1743C19.0457 34.4303 16.6777 34.4516 14.075 34.2383L13.819 47.8063C13.819 49.0863 13.1791 49.7263 11.8991 49.7263H5.62705ZM13.819 25.4063C16.0377 25.6196 18.0431 25.6623 19.8351 25.5343C21.6697 25.3636 23.2271 25.0009 24.5071 24.4463C25.7871 23.8916 26.7684 23.1449 27.4511 22.2063C28.1764 21.2676 28.5391 20.0943 28.5391 18.6863C28.5391 17.2783 28.1977 16.1049 27.5151 15.1663C26.8324 14.1849 25.8511 13.4169 24.5711 12.8623C23.2911 12.3076 21.7551 11.9449 19.9631 11.7743C18.1711 11.6036 16.1657 11.6463 13.947 11.9023L13.819 25.4063Z" fill="white"/>
</g>
</svg>
