<svg width="46" height="52" viewBox="0 0 46 52" fill="none" xmlns="http://www.w3.org/2000/svg">
<mask id="mask0_2262_24409" style="mask-type:alpha" maskUnits="userSpaceOnUse" x="0" y="0" width="46" height="52">
<rect width="46" height="52" fill="#D9D9D9"/>
</mask>
<g mask="url(#mask0_2262_24409)">
<path d="M43.9313 38.44C44.5286 38.9093 44.8273 39.4 44.8273 39.912C44.8273 40.3813 44.6566 40.872 44.3153 41.384C42.31 44.456 39.7713 46.7387 36.6993 48.232C33.67 49.768 30.15 50.536 26.1393 50.536C22.6833 50.536 19.526 49.9387 16.6673 48.744C13.8086 47.5493 11.3553 45.8853 9.3073 43.752C7.2593 41.576 5.65929 38.9947 4.50729 36.008C3.35529 33.0213 2.7793 29.7147 2.7793 26.088C2.7793 22.4613 3.33397 19.1333 4.4433 16.104C5.5953 13.032 7.17397 10.3867 9.17931 8.168C11.2273 5.90666 13.638 4.15733 16.4113 2.92C19.1846 1.64 22.214 1 25.4993 1C27.718 1 29.7873 1.23467 31.7073 1.704C33.6273 2.13066 35.3553 2.74933 36.8913 3.56C38.47 4.37066 39.878 5.33066 41.1153 6.44C42.3526 7.50666 43.4193 8.70133 44.3153 10.024C44.614 10.4507 44.742 10.8987 44.6993 11.368C44.6993 11.8373 44.486 12.264 44.0593 12.648L38.1713 17.256C37.7446 17.5973 37.254 17.7893 36.6993 17.832C36.1873 17.832 35.7393 17.576 35.3553 17.064C34.374 15.8267 33.1366 14.7813 31.6433 13.928C30.1926 13.0747 28.294 12.648 25.9473 12.648C24.326 12.648 22.8113 12.9893 21.4033 13.672C19.9953 14.3547 18.758 15.3147 17.6913 16.552C16.6673 17.7467 15.8353 19.2187 15.1953 20.968C14.598 22.7173 14.2993 24.6373 14.2993 26.728C14.2993 28.776 14.6193 30.6533 15.2593 32.36C15.8993 34.0667 16.774 35.5173 17.8833 36.712C18.9926 37.9067 20.294 38.8453 21.7873 39.528C23.2806 40.168 24.8806 40.488 26.5873 40.488C28.806 40.488 30.726 40.104 32.3473 39.336C33.9686 38.568 35.398 37.4373 36.6353 35.944C37.4887 34.92 38.4913 34.792 39.6433 35.56L43.9313 38.44Z" fill="white"/>
</g>
</svg>
