<svg width="130" height="43" viewBox="0 0 130 43" fill="none" xmlns="http://www.w3.org/2000/svg">
<mask id="mask0_1548_18405" style="mask-type:alpha" maskUnits="userSpaceOnUse" x="0" y="0" width="130" height="43">
<rect width="130" height="42.1296" fill="#D9D9D9"/>
</mask>
<g mask="url(#mask0_1548_18405)">
<path d="M19.3355 22.1618C19.3102 21.0646 19.527 19.9747 19.9717 18.9641C20.8443 16.9699 22.4919 15.3832 24.5628 14.5429C25.6283 14.1 26.7777 13.8753 27.9382 13.883V17.3243C27.2697 17.3203 26.6077 17.4496 25.9937 17.7043C25.4009 17.9481 24.8605 18.2965 24.4004 18.7314C23.9309 19.1685 23.5606 19.6947 23.3131 20.2766C23.0501 20.8726 22.9171 21.5143 22.9223 22.1618V30.4334H19.3355V22.1618Z" fill="white"/>
<path d="M82.9757 30.4332H79.4002V22.1617C79.4006 21.5146 79.2678 20.8738 79.0094 20.2765C78.7561 19.6979 78.3873 19.1729 77.9239 18.7312C77.4601 18.2965 76.9167 17.9483 76.3212 17.7041C75.7073 17.4534 75.0473 17.3242 74.3805 17.3242C73.7137 17.3242 73.0538 17.4534 72.4399 17.7041C71.8456 17.9474 71.3039 18.2958 70.8428 18.7312C70.3775 19.1703 70.0101 19.6961 69.763 20.2765C69.4962 20.8716 69.3599 21.5134 69.3628 22.1617V30.4332H65.7873V22.1617C65.758 21.0639 65.9757 19.9731 66.4254 18.9639C66.8574 17.98 67.4816 17.0852 68.2641 16.3279C69.0546 15.5707 69.9874 14.9649 71.0127 14.5427C72.0792 14.1072 73.2259 13.8828 74.3843 13.8828C75.5428 13.8828 76.6894 14.1072 77.7559 14.5427C78.7791 14.9666 79.7103 15.5722 80.5008 16.3279C81.2838 17.0847 81.9081 17.9797 82.3395 18.9639C82.7937 19.9717 83.0109 21.0636 82.9757 22.1617V30.4332Z" fill="white"/>
<path fill-rule="evenodd" clip-rule="evenodd" d="M17.0528 20.4702C16.9428 19.927 16.7817 19.3945 16.5714 18.8795C16.2479 18.1499 15.8168 17.4691 15.2915 16.858C14.7522 16.2422 14.1264 15.7019 13.432 15.2527C11.9912 14.3292 10.2979 13.8389 8.56716 13.8438C7.42395 13.8387 6.29182 14.0596 5.24085 14.4928C4.22226 14.9069 3.29655 15.5069 2.51487 16.2599C1.73174 17.0122 1.10452 17.9012 0.666716 18.8795C0.217102 19.8939 -0.00978031 20.987 0.000323198 22.0899V22.5517C0.00429547 22.731 0.0270646 22.9095 0.068284 23.0843C0.176804 24.095 0.485695 25.0763 0.978203 25.9748C1.45804 26.8566 2.09731 27.6489 2.866 28.3145C3.63659 28.9771 4.52227 29.5038 5.48249 29.8707C6.81783 30.3679 8.26054 30.5378 9.68096 30.3651C10.0249 30.3232 10.3633 30.2471 10.6909 30.1379V30.1106C11.0818 29.9717 11.4094 29.7046 11.6159 29.3561C11.8225 29.0076 11.8948 28.6001 11.8201 28.2054C11.7455 27.8106 11.5287 27.4538 11.2079 27.1978C10.887 26.9418 10.4827 26.8029 10.0661 26.8056C9.85452 26.8074 9.64495 26.845 9.44687 26.9165L9.25054 26.9456C9.04099 26.9547 8.81446 26.9547 8.56149 26.9547C7.90034 26.9606 7.24517 26.8337 6.63783 26.582C6.0464 26.3333 5.50904 25.9792 5.05396 25.5385C4.5887 25.0906 4.21869 24.5596 3.9647 23.9751C3.7036 23.3786 3.57067 22.7373 3.57393 22.0899C3.57077 21.4473 3.70374 20.8108 3.9647 20.2193C4.48928 19.0668 5.44292 18.1453 6.63783 17.636C7.24429 17.3809 7.8997 17.2514 8.56149 17.2561C9.41681 17.2486 10.2605 17.4474 11.0156 17.8342C11.7422 18.2078 12.3615 18.7486 12.8185 19.4085C12.911 19.5594 12.9959 19.7012 13.0639 19.823C13.1309 19.9455 13.1871 20.0732 13.2319 20.2048C13.5003 20.7997 13.6391 21.4413 13.6397 22.0899V31.1268H13.7171V32.3848C13.7225 33.1177 13.5444 33.8411 13.1979 34.4936C12.8752 35.0973 12.4356 35.636 11.9029 36.0807C10.64 37.1005 7.59116 38.7403 3.32285 35.5789L1.16321 38.2931C3.7174 40.1783 6.10169 40.8618 8.18205 40.8618C10.5019 40.8428 12.7318 39.9955 14.4401 38.484C15.2739 37.7001 15.965 36.7869 16.4846 35.7825C16.9806 34.7146 17.2329 33.5566 17.2246 32.3867V22.159C17.227 21.5919 17.1694 21.0261 17.0528 20.4702Z" fill="white"/>
<path fill-rule="evenodd" clip-rule="evenodd" d="M79.0987 15.8092C78.9458 15.3438 78.9099 14.4221 79.665 12.6641C81.8001 7.80483 86.3346 10.1645 89.4344 7.09766C89.0285 10.0681 87.5749 15.6855 83.4992 16.5254C81.4509 16.949 80.3295 16.7072 79.7745 16.4745L79.0987 15.8092Z" fill="white"/>
<path d="M37.2177 27.0007C37.8849 27.0029 38.5455 26.8729 39.1583 26.6189C39.734 26.388 40.2539 26.0451 40.6856 25.6118C41.3668 24.9973 41.8571 24.2124 42.1014 23.3448H45.6996C45.618 24.0482 45.4271 24.7358 45.1332 25.3846C44.2669 27.3709 42.6259 28.9505 40.5629 29.7839C38.9851 30.4255 37.2446 30.5999 35.5634 30.2848C33.8823 29.9698 32.3367 29.1796 31.1239 28.0151C30.3401 27.261 29.7156 26.3677 29.2851 25.3846C28.8407 24.362 28.6118 23.2645 28.6118 22.1559C28.6118 21.0474 28.8407 19.9499 29.2851 18.9273C30.1543 16.9414 31.7951 15.3613 33.8574 14.5243C35.9726 13.6753 38.35 13.6635 40.4741 14.4916C41.4659 14.8895 42.3752 15.456 43.1586 16.164L43.2247 16.2295L45.5674 18.5492L40.5157 23.3376L35.9415 23.3212L40.661 18.5946C40.2054 18.207 39.6828 17.8994 39.1168 17.6856C38.5163 17.4549 37.8755 17.337 37.229 17.3384C36.5594 17.3349 35.8962 17.4642 35.2808 17.7184C34.0781 18.2184 33.1196 19.1427 32.602 20.3016C32.3392 20.8928 32.2037 21.5292 32.2037 22.1723C32.2037 22.8154 32.3392 23.4517 32.602 24.0429C33.1222 25.2019 34.0795 26.1277 35.2808 26.6335C35.8964 26.8874 36.5594 27.0173 37.229 27.0152" fill="white"/>
<path d="M55.7195 26.9991C56.3867 27.001 57.0472 26.871 57.6602 26.6174C58.2346 26.3853 58.7536 26.0425 59.1855 25.6102C59.8668 24.9957 60.357 24.2108 60.6014 23.3433H64.1976C64.1195 24.0461 63.9324 24.7336 63.6426 25.383C62.7747 27.3695 61.1324 28.9491 59.0685 29.7824C58.007 30.2083 56.8685 30.4277 55.7186 30.4277C54.5686 30.4277 53.4301 30.2083 52.3687 29.7824C50.3037 28.9506 48.6608 27.3705 47.7945 25.383C47.3484 24.3608 47.1187 23.2631 47.1187 22.1544C47.1187 21.0456 47.3484 19.9479 47.7945 18.9257C48.2241 17.9425 48.8472 17.0486 49.6295 16.2934C50.4168 15.5402 51.3466 14.9392 52.3687 14.5227C54.481 13.6758 56.8547 13.664 58.976 14.49C59.967 14.8871 60.8752 15.4538 61.6566 16.1625L61.7265 16.2279L64.0692 18.5476L59.0175 23.336L54.4434 23.3196L59.1629 18.593C58.7062 18.2059 58.183 17.8983 57.6168 17.6841C57.0163 17.4534 56.3755 17.3356 55.729 17.3369C55.0594 17.3337 54.3963 17.463 53.7807 17.7168C53.185 17.9667 52.6428 18.3211 52.1818 18.7621C51.7272 19.2069 51.3612 19.7281 51.102 20.3001C50.8376 20.8909 50.7012 21.5274 50.7012 22.1707C50.7012 22.814 50.8376 23.4506 51.102 24.0414C51.3598 24.614 51.726 25.1355 52.1818 25.5793C52.641 26.0243 53.1835 26.3814 53.7807 26.6319C54.3964 26.8854 55.0593 27.0153 55.729 27.0137" fill="white"/>
<path d="M41.5856 3.82654C58.6569 3.82654 73.4667 9.39302 80.9065 17.5501C74.6202 8.13866 59.3932 1.49414 41.5856 1.49414C23.7779 1.49414 8.55096 8.13866 2.2627 17.5501C9.7044 9.39302 24.5161 3.82654 41.5856 3.82654Z" fill="white"/>
<path fill-rule="evenodd" clip-rule="evenodd" d="M109.653 22.1277C109.028 20.7095 107.856 19.5804 106.383 18.9791C105.623 18.6719 104.808 18.5137 103.984 18.5137C103.16 18.5137 102.344 18.6719 101.584 18.9791C100.468 19.4314 99.5159 20.1916 98.8474 21.1641C98.1789 22.1365 97.8241 23.2776 97.8277 24.4438C97.8256 25.2292 97.9901 26.0068 98.311 26.7289C98.6195 27.4327 99.0685 28.0713 99.6324 28.6086C100.195 29.1523 100.859 29.5884 101.59 29.8939C102.348 30.209 103.166 30.3687 103.991 30.3629C104.244 30.3625 104.497 30.3431 104.746 30.3048C104.914 30.2775 105.065 30.2575 105.224 30.2339C105.561 30.2273 105.881 30.0924 106.114 29.8587C106.347 29.625 106.474 29.3117 106.467 28.9877C106.46 28.6637 106.32 28.3555 106.078 28.131C105.835 27.9065 105.51 27.7841 105.173 27.7906C105.075 27.7889 104.977 27.8011 104.882 27.8269V27.8124C104.735 27.8378 104.594 27.8596 104.456 27.8796C104.318 27.8996 104.159 27.9033 104.001 27.9033C103.522 27.9082 103.049 27.814 102.611 27.627C102.182 27.4528 101.792 27.1982 101.465 26.878C101.131 26.5707 100.867 26.1991 100.691 25.7872C100.498 25.3671 100.4 24.9123 100.403 24.4529C100.397 23.9802 100.495 23.5118 100.691 23.0785C100.863 22.6565 101.127 22.2751 101.465 21.9605C101.792 21.6413 102.182 21.3885 102.611 21.2169C103.048 21.0285 103.522 20.9336 104.001 20.9388C104.479 20.9357 104.953 21.0305 105.39 21.2169C105.821 21.3904 106.211 21.6442 106.54 21.9637C106.868 22.2832 107.127 22.6621 107.303 23.0785C107.499 23.5117 107.598 23.9801 107.593 24.4529V30.372H110.157V24.4438C110.161 23.6476 109.994 22.8593 109.668 22.1277" fill="white"/>
<path fill-rule="evenodd" clip-rule="evenodd" d="M115.159 18.9901C114.426 19.2927 113.759 19.7243 113.192 20.2626C112.636 20.8084 112.188 21.4473 111.87 22.1478C111.553 22.8733 111.399 23.6551 111.417 24.442V29.125H111.426C111.426 29.125 111.417 29.125 111.417 29.1414C111.417 29.4659 111.551 29.7771 111.789 30.0065C112.027 30.2359 112.351 30.3648 112.687 30.3648C113.024 30.3648 113.348 30.2359 113.586 30.0065C113.824 29.7771 113.958 29.4659 113.958 29.1414V29.125H113.981V24.442C113.976 23.9773 114.072 23.5168 114.262 23.0895C114.441 22.6744 114.706 22.2989 115.042 21.986C115.371 21.6806 115.755 21.4344 116.174 21.2589C116.613 21.0749 117.087 20.9814 117.566 20.9844V18.5138C116.737 18.5086 115.917 18.6709 115.159 18.9901Z" fill="white"/>
<path fill-rule="evenodd" clip-rule="evenodd" d="M93.8962 27.6546C93.457 27.8243 92.9875 27.9095 92.5143 27.9055C92.0373 27.9095 91.5649 27.8153 91.1287 27.6292C90.7028 27.4552 90.3176 27.2005 89.996 26.8802C89.6591 26.5733 89.3928 26.2017 89.2145 25.7894C89.024 25.368 88.9269 24.9129 88.9294 24.4533C88.9263 23.9883 89.0234 23.5278 89.2145 23.1007C89.39 22.6801 89.6564 22.3003 89.996 21.9863C90.3181 21.6671 90.7032 21.4131 91.1287 21.2392C91.5654 21.0551 92.0376 20.9621 92.5143 20.9665C92.9881 20.9586 93.4584 21.0446 93.8962 21.2192C94.264 21.3672 94.6045 21.5716 94.9043 21.8245C95.0733 22.0153 95.299 22.1514 95.551 22.2146C95.803 22.2777 96.069 22.2647 96.3131 22.1775C96.5572 22.0902 96.7675 21.9328 96.9157 21.7266C97.0638 21.5204 97.1426 21.2754 97.1413 21.0247C97.1414 20.7243 97.0242 20.4348 96.8129 20.2139L96.8525 20.1848L96.8015 20.1339C96.2483 19.6175 95.5971 19.2083 94.8835 18.9286C94.1309 18.6359 93.326 18.4877 92.5143 18.4923C91.7102 18.4896 90.9136 18.6409 90.1708 18.9374C89.428 19.2339 88.7538 19.6696 88.1875 20.2193C87.6216 20.7633 87.1698 21.407 86.8566 22.1154C86.5327 22.8477 86.3657 23.6355 86.3657 24.4314C86.3657 25.2274 86.5327 26.0152 86.8566 26.7475C87.173 27.4515 87.6245 28.0917 88.1875 28.6345C89.3366 29.7372 90.8921 30.3574 92.5143 30.3597C93.3264 30.3666 94.1318 30.2177 94.8835 29.9216C95.5971 29.646 96.2485 29.2397 96.8015 28.7254L96.8525 28.6763L95.0025 26.9711C94.6739 27.2529 94.3004 27.4818 93.8962 27.6492" fill="white"/>
<path fill-rule="evenodd" clip-rule="evenodd" d="M127.841 13.3652L129.997 15.4049V24.4418C130.004 25.2347 129.842 26.0205 129.521 26.7506C129.208 27.4545 128.76 28.0948 128.199 28.6376C127.633 29.1756 126.964 29.6039 126.23 29.8993C125.465 30.2102 124.643 30.3679 123.812 30.3628C122.185 30.3616 120.625 29.7415 119.47 28.6376C118.908 28.096 118.46 27.4554 118.149 26.7506C117.824 26.0212 117.658 25.2354 117.662 24.4418V24.0783C117.665 23.9557 117.681 23.8339 117.711 23.7147C117.794 22.9981 118.018 22.3033 118.371 21.6677C118.714 21.0363 119.172 20.4697 119.723 19.9952C120.275 19.5191 120.909 19.1407 121.598 18.8772C122.305 18.6091 123.058 18.4734 123.818 18.4772C124.079 18.4756 124.34 18.4945 124.597 18.5336C124.852 18.5754 125.086 18.6118 125.322 18.6445C125.627 18.7098 125.897 18.8812 126.079 19.1259C126.261 19.3706 126.342 19.6714 126.308 19.9705C126.274 20.2697 126.126 20.5462 125.894 20.747C125.661 20.9478 125.359 21.0588 125.047 21.0587C124.94 21.0588 124.833 21.0447 124.73 21.0169V21.0296C124.565 21.0005 124.416 20.9751 124.275 20.9569C124.123 20.9417 123.97 20.9344 123.818 20.9351C123.342 20.9288 122.869 21.0218 122.434 21.2078C122.004 21.3819 121.614 21.6358 121.286 21.9549C120.958 22.2764 120.695 22.6544 120.512 23.0693C120.323 23.4967 120.226 23.9571 120.229 24.4219C120.227 24.8813 120.323 25.3362 120.512 25.758C120.698 26.1645 120.961 26.5343 121.286 26.8488C121.614 27.1691 122.004 27.4236 122.434 27.5978C122.869 27.784 123.341 27.8783 123.818 27.8741C124.301 27.877 124.78 27.7829 125.224 27.5978C125.658 27.4225 126.053 27.1682 126.387 26.8488C126.712 26.5342 126.973 26.1643 127.157 25.758C127.346 25.3361 127.441 24.8812 127.439 24.4219V13.7652L127.841 13.3652Z" fill="white"/>
</g>
</svg>
