<svg xmlns="http://www.w3.org/2000/svg" xmlns:xlink="http://www.w3.org/1999/xlink" viewBox="0 0 39.6 36.72"><defs><style>.cls-1{clip-path:url(#clip-path);}.cls-10,.cls-2,.cls-8{fill:none;}.cls-3{isolation:isolate;}.cls-4{mask:url(#mask);}.cls-5{clip-path:url(#clip-path-2);}.cls-6{fill:#231815;opacity:0.35;mix-blend-mode:multiply;}.cls-7{fill:#f09199;}.cls-8{stroke:#e73656;stroke-width:1.5px;}.cls-10,.cls-8{stroke-miterlimit:10;}.cls-9{fill:#ea5532;}.cls-10{stroke:#e60012;stroke-width:1.1px;}</style><clipPath id="clip-path"><rect class="cls-2" x="-6.1202" y="-9.3602" width="54.72" height="51.84"/></clipPath><mask id="mask" x="-6.1202" y="-9.3602" width="54.72" height="51.84" maskUnits="userSpaceOnUse"><g class="cls-1"><image width="152" height="144" transform="translate(-6.1202 -9.3602) scale(0.36 0.36)" xlink:href="%EB%8C%80%EC%A7%80%2051.png"/></g></mask><clipPath id="clip-path-2"><rect class="cls-2" width="39.6" height="36.72"/></clipPath></defs><g class="cls-3"><g id="레이어_1" data-name="레이어 1"><g class="cls-4"><g class="cls-5"><rect class="cls-6" width="39.6" height="36.72"/></g></g><path class="cls-7" d="M34.3186,1.863,23.1076,4.561a.8685.8685,0,0,0-.492,1.541l1.728,1.989-6.68,5.807a10.1716,10.1716,0,1,0,3.363,3.868l6.68-5.807,1.729,1.989a.8691.8691,0,0,0,1.595-.273l4.232-10.727c.316-.8-.107-1.286-.944-1.085"/><path class="cls-8" d="M34.3186,1.863,23.1076,4.561a.8685.8685,0,0,0-.492,1.541l1.728,1.989-6.68,5.807a10.1716,10.1716,0,1,0,3.363,3.868l6.68-5.807,1.729,1.989a.8691.8691,0,0,0,1.595-.273l4.232-10.727C35.5786,2.148,35.1556,1.662,34.3186,1.863Z"/><path class="cls-9" d="M15.2093,19.4276a4.1314,4.1314,0,1,0-.408,5.829,4.132,4.132,0,0,0,.408-5.829"/><path class="cls-10" d="M15.2093,19.4276a4.1314,4.1314,0,1,0-.408,5.829A4.132,4.132,0,0,0,15.2093,19.4276Z"/></g></g></svg>