<?xml version="1.0" encoding="utf-8"?>
<!-- Generator: Adobe Illustrator 25.0.1, SVG Export Plug-In . SVG Version: 6.00 Build 0)  -->
<svg version="1.1" id="레이어_1" xmlns="http://www.w3.org/2000/svg" xmlns:xlink="http://www.w3.org/1999/xlink" x="0px"
	 y="0px" viewBox="0 0 138.5 138.5" style="enable-background:new 0 0 138.5 138.5;" xml:space="preserve">
<style type="text/css">
	.st0{fill:#4BA6DD;}
	.st1{fill:#0088CB;}
	.st2{fill:none;stroke:#0088CB;stroke-miterlimit:10;}
	.st3{fill:#FFFFFF;}
</style>
<g id="Layer_2">
	<g id="Layer_1-2">
		<path class="st0" d="M14.8,110.7C-8,80.5-2,37.5,28.2,14.7s73.2-16.8,96,13.4c22.8,30.1,16.8,73-13.2,95.9
			c-29.9,22.9-72.7,17.3-95.7-12.6C15.2,111.2,15,111,14.8,110.7z"/>
		<path class="st1" d="M14.8,110.7l0.7-0.4c-22.7-29.8-17-72.4,12.9-95.1s72.4-17,95.1,12.9s17,72.4-12.9,95.1
			c-11.8,9-26.3,13.9-41.1,13.9c-21.2,0.1-41.2-9.8-54-26.8L14.8,110.7l-0.7,0.5c23.2,30.4,66.6,36.4,97.1,13.2s36.4-66.6,13.2-97.1
			S57.8-9,27.3,14.1C10.1,27.2,0,47.7,0,69.3c0,15.1,5,29.8,14.1,41.8L14.8,110.7z"/>
		<line class="st2" x1="69" y1="69.4" x2="110.9" y2="15.1"/>
		<line class="st2" x1="69" y1="69.4" x2="30.7" y2="13.4"/>
		<line class="st2" x1="69" y1="69.4" x2="3.9" y2="88.6"/>
		<line class="st2" x1="69" y1="69.4" x2="67.1" y2="137.8"/>
		<line class="st2" x1="69" y1="69.4" x2="134.1" y2="92.6"/>
		<path class="st3" d="M79.7,69.5c0,5.9-4.7,10.7-10.6,10.7c-5.9,0-10.7-4.7-10.7-10.6c0-5.9,4.7-10.7,10.6-10.7
			C74.9,58.8,79.7,63.6,79.7,69.5z"/>
		<path class="st1" d="M79.7,69.5h-0.8c0,2.6-1,5.1-2.9,7c-1.9,1.9-4.4,2.9-7,2.9c-2.6,0-5.1-1-7-2.9c-1.9-1.8-2.9-4.4-2.9-7
			c0-2.6,1-5.1,2.9-7c1.9-1.9,4.4-2.9,7-2.9c2.6,0,5.1,1,7,2.9c1.9,1.8,2.9,4.4,2.9,7h1.6c0-6.3-5.1-11.5-11.4-11.5
			S57.6,63,57.6,69.4c0,6.3,5.1,11.5,11.4,11.5c6.3,0,11.4-5.1,11.5-11.4L79.7,69.5z"/>
	</g>
</g>
</svg>
