<svg id="레이어_1" data-name="레이어 1" xmlns="http://www.w3.org/2000/svg" xmlns:xlink="http://www.w3.org/1999/xlink" viewBox="0 0 197.131 197.131"><defs><style>.cls-1,.cls-4{fill:none;}.cls-2{fill:#bce1df;}.cls-3{fill:#fff;}.cls-4{stroke:#727171;stroke-linecap:round;stroke-linejoin:round;stroke-width:0.375px;}.cls-5{clip-path:url(#clip-path);}</style><clipPath id="clip-path"><rect class="cls-1" x="-43.1674" y="-43.1209" width="283.465" height="283.465"/></clipPath></defs><path class="cls-2" d="M98.565,196.492A97.9265,97.9265,0,0,1,29.321,29.321,97.9265,97.9265,0,0,1,167.81,167.81a97.2848,97.2848,0,0,1-69.245,28.682"/><path class="cls-3" d="M98.565,196.492v-.64A97.2866,97.2866,0,0,1,29.773,29.773,97.2873,97.2873,0,1,1,167.358,167.358a96.646,96.646,0,0,1-68.793,28.494v1.279A98.5657,98.5657,0,0,0,168.262,28.869,98.5657,98.5657,0,0,0,28.869,168.262a97.9262,97.9262,0,0,0,69.696,28.869Z"/><path class="cls-4" d="M163.4357,63.7565a.48.48,0,0,0-.152.067.1011.1011,0,0,0-.084.058.2919.2919,0,0,0,.149.104c.041-.026.043-.0569.004-.094a.0556.0556,0,0,0-.08-.0169.0866.0866,0,0,0,0,.0509"/><path class="cls-4" d="M178.4588,23.449a.48.48,0,0,0-.152.067.1007.1007,0,0,0-.084.058.2925.2925,0,0,0,.149.104c.041-.026.043-.057.004-.094a.0557.0557,0,0,0-.08-.017.0886.0886,0,0,0,0,.051"/><g class="cls-5"><path class="cls-3" d="M133.5783,230.523l.541,2.014.803-.217-.54-2.013Zm-1.081-4.026.541,2.013.803-.216-.541-2.013Zm-1.081-4.026.541,2.013.803-.216-.541-2.012Zm-1.081-4.025.54,2.012.804-.215-.541-2.013Zm-1.082-4.026.541,2.013.803-.216-.54-2.013Zm-1.082-4.027.541,2.013.804-.216-.541-2.013Zm-1.081-4.026.54,2.013.805-.215-.542-2.013Zm-1.081-4.025.54,2.013.804-.216-.541-2.013Zm-1.082-4.026.541,2.013.803-.216-.54-2.013Zm-1.081-4.027.541,2.014.803-.216-.541-2.013Zm-1.081-4.025.54,2.012.804-.215-.541-2.013Zm-1.081-4.026.54,2.013.803-.216-.54-2.013Zm-1.082-4.026.541,2.013.803-.216-.54-2.013Zm-1.081-4.026.541,2.013.803-.216-.541-2.012Zm-1.082-4.026.541,2.013.804-.216-.541-2.013Zm-1.082-4.026.541,2.013.804-.216-.541-2.013Zm-1.081-4.026.541,2.013.803-.216-.54-2.013Zm-1.081-4.026.541,2.013.803-.216-.541-2.012Zm-1.081-4.025.54,2.012.804-.215-.541-2.014Zm-1.082-4.027.541,2.013.803-.216-.54-2.013Zm-1.081-4.026.541,2.013.803-.216-.541-2.013Zm-1.081-4.026.54,2.013.804-.216-.541-2.012Zm-1.081-4.025.54,2.012.804-.215-.541-2.013Zm-1.083-4.026.542,2.013.803-.216-.54-2.014Zm-1.081-4.027.541,2.013.804-.216-.542-2.013Zm-1.081-4.026.54,2.013.804-.216-.541-2.012Zm-1.081-4.025.54,2.012.804-.215-.541-2.013Zm-1.082-4.026.541,2.013.803-.216-.54-2.013Zm-1.081-4.027.541,2.014.803-.217-.541-2.013Zm-1.081-4.026.54,2.013.804-.216-.541-2.012Zm-1.082-4.025.541,2.012.803-.215-.54-2.013Zm-1.081-4.026.541,2.013.803-.216-.54-2.013Zm-1.082-4.026.541,2.013.804-.216-.541-2.013Zm-1.081-4.027.54,2.013.805-.215-.542-2.013Zm-1.082-4.025.541,2.012.803-.215-.54-2.013ZM95.73,89.615l.541,2.013.803-.216-.54-2.013Zm-1.081-4.026.541,2.013.803-.216-.541-2.013Zm-1.081-4.027.54,2.014.804-.216-.541-2.013Zm-1.082-4.025.541,2.013.803-.216-.54-2.013Zm-1.081-4.026.541,2.013.803-.216-.541-2.013Zm-1.081-4.026.54,2.013.804-.216-.541-2.013Zm-1.082-4.026.54,2.013.805-.215-.541-2.013ZM88.16,61.433l.541,2.013.804-.216-.541-2.013Zm-1.081-4.026.541,2.013.803-.216-.541-2.013Zm-1.081-4.026.54,2.013.804-.216-.541-2.013Zm-1.081-4.026.54,2.013.804-.216-.541-2.013Zm-1.082-4.026.541,2.013.803-.216-.54-2.013Zm-1.081-4.026.541,2.013.803-.216-.541-2.013Zm-1.081-4.026.54,2.013.804-.216-.541-2.013Zm-1.082-4.026.541,2.013.803-.215-.54-2.013Zm-1.082-4.026.541,2.013.804-.215-.54-2.013Zm-1.081-4.026.541,2.013.804-.215-.542-2.013Zm-1.081-4.026.54,2.013.804-.215-.541-2.013Zm-1.082-4.025.541,2.012.803-.215-.54-2.013Zm-1.081-4.026.541,2.013.803-.216-.54-2.013Zm-1.081-4.026.541,2.013.803-.216-.541-2.013ZM73.0223,5.07l.54,2.013.804-.216-.541-2.013ZM71.94,1.044l.541,2.013.803-.216-.54-2.013Zm-1.081-4.026L71.4-.969l.803-.216-.541-2.013Zm-1.082-4.026.541,2.013.804-.216-.541-2.013Zm-1.081-4.026.54,2.013.805-.216-.542-2.013Zm-1.082-4.026.541,2.013.803-.216-.54-2.013Zm-1.081-4.026.541,2.013.803-.216-.541-2.013Zm-1.081-4.026.54,2.013.804-.216-.541-2.0129Zm-1.081-4.026.54,2.013.804-.2159-.541-2.013Zm-1.082-4.026.541,2.013.803-.2159-.54-2.013Zm-1.081-4.026.541,2.013.803-.2159-.541-2.013Z"/><path class="cls-3" d="M51.6488,226.7745l-.71,1.9591.782.2839.71-1.96Zm1.421-3.9189-.711,1.96.782.2829.71-1.9589Zm1.42-3.919-.71,1.959.782.284.711-1.96Zm1.421-3.9191-.711,1.96.783.283.71-1.96Zm1.42-3.919-.71,1.9591.783.284.71-1.96Zm1.421-3.92-.711,1.96.783.2839.71-1.96Zm1.421-3.918-.711,1.9589.783.2831.71-1.9591Zm1.421-3.92-.711,1.96.782.284.71-1.96Zm1.42-3.918-.71,1.9581.782.284.71-1.959Zm1.421-3.92-.71,1.96.781.2829.711-1.9589Zm1.42-3.919-.71,1.9589.782.2841.71-1.959Zm1.421-3.919-.71,1.96.781.2831.711-1.96Zm1.42-3.9191-.71,1.9591.782.284.71-1.959Zm1.421-3.9189-.71,1.959.782.2839.711-1.96Zm1.42-3.919-.71,1.9589.783.2831.71-1.958Zm1.421-3.92-.71,1.96.782.284.711-1.96Zm1.421-3.918-.711,1.9581.783.284.71-1.959Zm1.421-3.92-.711,1.96.783.2829.71-1.9589Zm1.421-3.919L76.51,158.19l.782.284.71-1.9589Zm1.42-3.919-.71,1.96.782.2831.71-1.96Zm1.421-3.9191-.711,1.9591.782.284.71-1.9591Zm1.42-3.919-.71,1.9591.782.284.71-1.96Zm1.421-3.9189-.711,1.959.782.283.71-1.958Zm1.42-3.92-.71,1.96.782.2841.71-1.96Zm1.421-3.918-.71,1.958.782.284L86.5268,133Zm1.42-3.92-.71,1.96.783.283.71-1.959Zm1.421-3.919-.71,1.9589.782.284.711-1.9589Zm1.42-3.919-.71,1.96.783.2831.71-1.96Zm1.422-3.919-.711,1.959.782.284.711-1.9591Zm1.42-3.9191-.71,1.9591.782.284.71-1.96Zm1.421-3.9189-.71,1.959.781.2829.711-1.9589Zm1.421-3.92-.711,1.96.782.284.71-1.96Zm1.42-3.918-.71,1.959.782.283.71-1.96Zm1.421-3.92-.711,1.96.782.284.71-1.96Zm1.42-3.9189-.71,1.959.782.2839.71-1.96Zm1.421-3.919-.711,1.96.783.283.71-1.96Zm1.42-3.919-.71,1.959.783.284.71-1.96Zm1.421-3.9191-.711,1.9591.783.284.71-1.96Zm1.42-3.9189-.71,1.959.783.2829.71-1.9589Zm1.422-3.92-.711,1.96.782.2839.711-1.96Zm1.42-3.918-.71,1.959.782.283.71-1.96Zm1.421-3.92-.71,1.96.781.284.711-1.96Zm1.42-3.9189-.71,1.959.782.284.71-1.96Zm1.421-3.919-.71,1.96.781.283.711-1.96Zm1.42-3.919-.71,1.959.782.284.71-1.96Zm1.421-3.919-.71,1.959.781.284.711-1.96Zm1.421-3.919-.711,1.959.783.284.71-1.96Zm1.42-3.92-.71,1.96.783.283.71-1.959Zm1.421-3.919-.711,1.96.783.283.71-1.959Zm1.42-3.9191-.71,1.96.783.283.71-1.9591Zm1.422-3.9189-.711,1.96.782.283.71-1.959Zm1.42-3.919-.71,1.959.782.284.71-1.96Zm1.421-3.919-.711,1.959.782.284.71-1.96Zm1.42-3.919-.71,1.959.782.284.71-1.96Zm1.421-3.92-.71,1.96.781.284.711-1.96Zm1.42-3.919-.71,1.96.782.283.71-1.959Zm1.421-3.919-.71,1.96.781.283.711-1.959Zm1.42-3.919-.71,1.96.783.283.71-1.959Zm1.421-3.919-.71,1.96.782.283.711-1.959Zm1.42-3.919-.71,1.959.783.284.71-1.96Zm1.421-3.919-.71,1.959.782.284.711-1.96Zm1.422-3.919-.711,1.959.782.284.71-1.96Zm1.42-3.92-.71,1.96.782.284.71-1.96Zm1.421-3.919-.711,1.96.782.2829.71-1.9589Zm1.42-3.919-.71,1.96.782.283.71-1.959Zm1.421-3.919-.711,1.96.782.283.71-1.959Zm1.42-3.9191-.71,1.96.782.283.71-1.959Z"/><path class="cls-3" d="M-13.5441,176.4774l-1.708,1.194.476.682,1.708-1.195Zm3.415-2.39-1.707,1.194.476.683,1.708-1.196Zm3.416-2.389-1.708,1.194.477.682,1.708-1.195Zm3.416-2.389-1.708,1.194.477.682,1.708-1.195Zm3.416-2.39-1.708,1.194.477.683,1.708-1.195Zm3.416-2.389-1.708,1.194.477.682,1.708-1.195Zm3.416-2.39-1.708,1.195.477.681,1.708-1.194Zm3.416-2.39-1.708,1.195.477.682,1.708-1.194Zm3.416-2.389-1.708,1.195.477.681,1.708-1.194Zm3.416-2.389-1.708,1.195.477.681,1.708-1.194Zm3.416-2.39-1.708,1.196.477.681,1.708-1.194Zm3.416-2.389-1.708,1.195.477.681,1.707-1.194Zm3.416-2.389-1.708,1.195.476.681,1.708-1.194Zm3.415-2.39-1.708,1.196.477.681,1.708-1.194Zm3.416-2.389L32.57,144.22l.477.681,1.708-1.194Zm3.416-2.389-1.708,1.194.477.682,1.708-1.195Zm3.416-2.39-1.708,1.195.477.682,1.708-1.195Zm3.416-2.389-1.708,1.194.477.682,1.708-1.195Zm3.416-2.389-1.708,1.194.477.682,1.708-1.195Zm3.416-2.39-1.708,1.195.477.682,1.708-1.195Zm3.416-2.389-1.708,1.194.477.682,1.708-1.195ZM58.19,126.3l-1.708,1.194.477.682,1.708-1.195Zm3.416-2.39-1.709,1.195.477.682,1.709-1.195Zm3.416-2.389-1.708,1.194.476.682,1.709-1.195Zm3.416-2.39-1.708,1.195.476.682,1.709-1.195Zm3.415-2.39-1.707,1.196.477.681,1.707-1.194Zm3.416-2.389-1.707,1.195.477.681,1.707-1.194Zm3.416-2.389-1.707,1.195.477.681,1.707-1.194Zm3.416-2.39-1.708,1.196.477.681,1.708-1.194Zm3.417-2.389-1.709,1.195.477.681,1.708-1.194Zm3.416-2.389-1.709,1.195.477.681,1.709-1.194Zm3.415-2.39-1.708,1.196.477.681,1.708-1.194Zm3.416-2.389-1.708,1.195.477.681,1.708-1.194Zm3.416-2.389-1.708,1.195.477.681,1.708-1.195Zm3.416-2.39-1.708,1.195.476.682,1.709-1.195Zm3.416-2.389-1.708,1.194.476.682,1.709-1.195Zm3.416-2.389-1.708,1.194.477.682,1.708-1.195Zm3.415-2.39-1.707,1.195.477.682,1.707-1.195Zm3.416-2.389-1.707,1.194.477.682,1.707-1.195Zm3.417-2.389-1.708,1.194.477.682,1.707-1.195Zm3.416-2.39-1.709,1.195.477.682,1.708-1.195Zm3.416-2.389-1.709,1.194.477.682,1.709-1.195Zm3.416-2.39-1.709,1.195.477.681,1.709-1.194Zm3.415-2.39-1.708,1.196.477.681,1.708-1.194Zm3.416-2.389-1.708,1.195.477.681,1.708-1.194Zm3.416-2.389-1.707,1.195.476.681,1.708-1.194Zm3.416-2.39L141.88,67.76l.477.681,1.708-1.194Zm3.416-2.389-1.708,1.195.477.681,1.708-1.194Zm3.416-2.389-1.708,1.195.477.681,1.708-1.194Zm3.415-2.39-1.707,1.196.477.681,1.707-1.194Zm3.417-2.389-1.708,1.195.477.681,1.707-1.194Zm3.416-2.389-1.708,1.195.477.681,1.708-1.195Zm3.416-2.39-1.709,1.195.477.682,1.709-1.195Zm3.416-2.389-1.709,1.195.477.681,1.709-1.194Zm3.416-2.389-1.709,1.194.477.682,1.709-1.195Zm3.415-2.39-1.708,1.195.477.682,1.708-1.195Zm3.416-2.389-1.707,1.194.476.682,1.708-1.194Zm3.416-2.39-1.707,1.195.477.682,1.707-1.195Zm3.416-2.3889-1.707,1.195.476.6809,1.708-1.1939Zm3.416-2.3891-1.708,1.194.477.6821,1.708-1.1951Zm3.416-2.39-1.708,1.1949.477.682,1.708-1.195Zm3.416-2.3891-1.708,1.195.477.6811,1.707-1.1941Zm3.416-2.39-1.708,1.195.477.682,1.708-1.195Zm3.416-2.389-1.708,1.195.477.682,1.708-1.195Zm3.416-2.3889-1.709,1.1939.477.682,1.709-1.1939Zm3.416-2.39-1.709,1.1951.477.682,1.709-1.195Zm3.416-2.389-1.708,1.195.476.681,1.709-1.194Z"/><path class="cls-3" d="M-37.9584,98.1491h-2.084v.832h2.084Zm4.169,0h-2.084v.832h2.084Zm4.169,0h-2.084v.832h2.084Zm4.168,0h-2.084v.832h2.084Zm4.169,0h-2.084v.832h2.084Zm4.169,0h-2.084v.832h2.084Zm4.168,0H-15.03v.832h2.084Zm4.169,0h-2.084v.832h2.084Zm4.168,0h-2.084v.832h2.084Zm4.169,0h-2.084v.832H-.44Zm4.169,0H1.6446v.832h2.084Zm4.168,0H5.8126v.832h2.084Zm4.169,0H9.9816v.832h2.084Zm4.169,0h-2.084v.832h2.084Zm4.168,0h-2.084v.832h2.084Zm4.169,0h-2.084v.832h2.084Zm4.169,0h-2.084v.832h2.084Zm4.168,0h-2.084v.832h2.084Zm4.169,0h-2.084v.832h2.084Zm4.169,0h-2.084v.832h2.084Zm4.168,0h-2.084v.832h2.084Zm4.169,0H47.5v.832h2.084Zm4.169,0h-2.084v.832h2.084Zm4.169,0h-2.084v.832h2.084Zm4.168,0h-2.085v.832H62.09Zm4.169,0h-2.084v.832h2.084Zm4.169,0h-2.085v.832h2.085Zm4.168,0h-2.084v.832h2.084Zm4.169,0h-2.084v.832h2.084Zm4.169,0h-2.085v.832h2.085Zm4.168,0h-2.085v.832h2.085Zm4.169,0h-2.084v.832h2.084Zm4.169,0h-2.084v.832H95.44Zm4.168,0h-2.084v.832h2.084Zm4.169,0h-2.085v.832h2.085Zm4.169,0h-2.084v.832h2.084Zm4.168,0h-2.085v.832h2.085Zm4.169,0h-2.084v.832h2.084Zm4.169,0h-2.084v.832h2.084Zm4.168,0h-2.084v.832h2.084Zm4.169,0h-2.084v.832h2.084Zm4.169,0h-2.085v.832h2.085Zm4.168,0h-2.084v.832h2.084Zm4.169,0H139.21v.832h2.085Zm4.168,0h-2.084v.832h2.084Zm4.169,0h-2.084v.832h2.084Zm4.169,0h-2.085v.832h2.085Zm4.168,0h-2.084v.832h2.084Zm4.169,0h-2.084v.832h2.084Zm4.169,0h-2.085v.832h2.085Zm4.168,0h-2.084v.832h2.084Zm4.168,0h-2.084v.832h2.084Zm4.169,0h-2.085v.832h2.085Zm4.169,0h-2.084v.832h2.084Zm4.168,0h-2.084v.832h2.084Zm4.169,0h-2.085v.832h2.085Zm4.169,0h-2.084v.832h2.084Zm4.168,0h-2.084v.832h2.084Zm4.169,0H201.74v.832h2.084Zm4.169,0h-2.084v.832h2.084Zm4.168,0h-2.084v.832h2.084Zm4.169,0h-2.085v.832h2.085Zm4.169,0h-2.085v.832h2.085Zm4.168,0h-2.084v.832h2.084Zm4.169,0h-2.085v.832h2.085Zm4.169,0H230.92v.832h2.085Zm4.168,0h-2.084v.832h2.084Z"/><path class="cls-3" d="M202.8669,186.6567l1.596,1.34.535-.637-1.596-1.34Zm-3.194-2.68,1.596,1.34.535-.637-1.596-1.34Zm-3.192-2.679,1.596,1.339.535-.637-1.596-1.34Zm-3.194-2.681,1.597,1.34.535-.637-1.597-1.341Zm-3.192-2.68,1.596,1.34.535-.637-1.596-1.34Zm-3.193-2.68,1.596,1.34.535-.637-1.596-1.34Zm-3.193-2.68,1.596,1.34.535-.637-1.596-1.341Zm-3.193-2.68,1.596,1.34.535-.638-1.596-1.34Zm-3.193-2.681,1.597,1.341.535-.637-1.598-1.34Zm-3.193-2.68,1.596,1.34.535-.636-1.596-1.341Zm-3.193-2.679,1.597,1.34.535-.638-1.597-1.34Zm-3.193-2.681,1.597,1.341.534-.638-1.596-1.34Zm-3.193-2.68,1.597,1.34.535-.637-1.597-1.34Zm-3.192-2.68,1.596,1.34.535-.637-1.596-1.34Zm-3.194-2.68,1.596,1.34.535-.637-1.596-1.34Zm-3.192-2.68,1.596,1.34.535-.637-1.596-1.341Zm-3.194-2.68,1.597,1.34.535-.637-1.597-1.34Zm-3.192-2.681,1.596,1.341.535-.637-1.597-1.34Zm-3.193-2.679,1.596,1.339.535-.636-1.596-1.341Zm-3.194-2.68,1.597,1.34.535-.638-1.597-1.34Zm-3.192-2.681,1.596,1.341.535-.638-1.596-1.339Zm-3.193-2.68,1.597,1.34.535-.637-1.598-1.34Zm-3.193-2.679,1.596,1.339.535-.637-1.596-1.34Zm-3.193-2.681,1.597,1.341.534-.638-1.596-1.34Zm-3.193-2.68,1.597,1.34.535-.638-1.597-1.339Zm-3.193-2.68,1.596,1.34.535-.637-1.596-1.34Zm-3.192-2.68,1.596,1.34.535-.637-1.596-1.34Zm-3.194-2.68,1.596,1.34.535-.638-1.596-1.34Zm-3.193-2.68,1.597,1.34.535-.638-1.597-1.339Zm-3.192-2.681,1.596,1.341.535-.637-1.597-1.34Zm-3.194-2.68,1.597,1.34.535-.637-1.597-1.34Zm-3.192-2.679,1.596,1.34.535-.638-1.596-1.34Zm-3.194-2.681,1.598,1.341.534-.638-1.597-1.34Zm-3.192-2.68,1.596,1.34.535-.637-1.596-1.34Zm-3.193-2.68,1.596,1.34.535-.637-1.596-1.34Zm-3.193-2.68,1.596,1.34.535-.637-1.596-1.34Zm-3.193-2.68,1.596,1.34.535-.638-1.596-1.34Zm-3.193-2.68,1.597,1.34.535-.637-1.598-1.34Zm-3.193-2.681,1.596,1.34.535-.636-1.596-1.34Zm-3.193-2.679,1.597,1.34.535-.638-1.597-1.34Zm-3.193-2.68,1.597,1.34.534-.638-1.596-1.34Zm-3.193-2.681,1.597,1.34.535-.636-1.597-1.34Zm-3.192-2.68,1.596,1.34.535-.637-1.597-1.34Zm-3.194-2.679,1.597,1.34.534-.638-1.596-1.34Zm-3.192-2.681,1.596,1.34.535-.637-1.596-1.34Zm-3.194-2.68,1.597,1.34.535-.637-1.597-1.34Zm-3.192-2.68,1.596,1.34.535-.637-1.596-1.34Zm-3.193-2.68,1.596,1.34.535-.637-1.596-1.341Zm-3.193-2.68,1.596,1.34.535-.638-1.596-1.34Zm-3.193-2.68,1.596,1.34.535-.638-1.596-1.339Zm-3.193-2.681,1.596,1.34.535-.636-1.596-1.341Zm-3.193-2.68,1.596,1.341.535-.638-1.596-1.34Zm-3.193-2.68,1.597,1.34.534-.637-1.596-1.34Zm-3.193-2.68,1.597,1.34.534-.637-1.596-1.34Zm-3.193-2.68,1.597,1.34.534-.637-1.596-1.34Zm-3.193-2.68,1.597,1.34.535-.637-1.597-1.34Zm-3.193-2.68,1.597,1.34.535-.637-1.597-1.34Zm-3.193-2.68,1.597,1.34.535-.6371-1.597-1.34Zm-3.193-2.68,1.597,1.34.535-.637-1.597-1.34Zm-3.193-2.68,1.597,1.34.535-.637-1.597-1.341Zm-3.192-2.68,1.596,1.34.535-.638-1.597-1.34Zm-3.193-2.68,1.596,1.34.535-.638-1.596-1.34Zm-3.193-2.681,1.596,1.34.535-.637-1.596-1.34Zm-3.193-2.68,1.596,1.34.535-.637-1.596-1.34Zm-3.193-2.68,1.596,1.34.535-.637-1.596-1.34Zm-3.193-2.68,1.596,1.34.535-.637-1.596-1.34Zm-3.193-2.68,1.596,1.34.535-.637-1.596-1.34Z"/></g></svg>