<?xml version="1.0" encoding="utf-8"?>
<!-- Generator: Adobe Illustrator 28.1.0, SVG Export Plug-In . SVG Version: 6.00 Build 0)  -->
<svg version="1.1" id="레이어_1" xmlns="http://www.w3.org/2000/svg" xmlns:xlink="http://www.w3.org/1999/xlink" x="0px"
	 y="0px" viewBox="0 0 449 405" style="enable-background:new 0 0 449 405;" xml:space="preserve">
<style type="text/css">
	.st0{fill:#01B097;}
	.st1{fill:none;}
	.st2{fill:#FFFFFF;}
	.st3{fill:none;stroke:#01B097;stroke-width:4;stroke-linecap:round;stroke-linejoin:round;stroke-miterlimit:10;}
	.st4{fill:#B7B7B7;}
	.st5{fill:#D6D6D6;}
</style>
<g>
	<g>
		<circle class="st0" cx="62.2" cy="61.7" r="20.7"/>
		<g>
			<rect x="42.7" y="36" class="st1" width="39" height="46.7"/>
			<path class="st2" d="M64.9,72.1h-3.2V53.9l-2.8,2.4L57,54.2l5.2-4.5h2.7V72.1z"/>
		</g>
	</g>
	<g>
		<circle class="st0" cx="166.7" cy="82" r="20.7"/>
		<g>
			<rect x="147.2" y="56.3" class="st1" width="39" height="46.7"/>
			<path class="st2" d="M173,92.4h-13.5v-2.7l4.9-5.6c3.2-3.6,4.8-6.4,4.8-8.4c0-0.9-0.3-1.7-0.9-2.2c-0.6-0.6-1.3-0.8-2.2-0.8
				c-1.6,0-3.3,0.6-5.3,1.7l-0.6-3.1c2.1-1.1,4-1.6,5.8-1.6c1.9,0,3.5,0.5,4.6,1.4c1.3,1,1.9,2.6,1.9,4.6c0,2.3-1.9,5.6-5.6,10
				l-3.1,3.6h9.1v3.1H173z"/>
		</g>
	</g>
	<g>
		<circle class="st0" cx="62.2" cy="241.8" r="20.7"/>
		<g>
			<rect x="42.7" y="216.1" class="st1" width="39" height="46.7"/>
			<path class="st2" d="M55.3,248.2c2,0.8,3.8,1.2,5.5,1.2c1.3,0,2.4-0.3,3.2-0.9c0.9-0.7,1.4-1.6,1.4-2.9c0-2.4-1.7-3.6-5-3.6h-2.2
				v-3h0.9c1.9,0,3.3-0.2,4.2-0.5c1.4-0.6,2.1-1.6,2.1-3.2c0-0.4-0.1-0.8-0.3-1.1s-0.5-0.6-0.9-0.9s-0.8-0.4-1.3-0.6
				c-0.5-0.1-1-0.2-1.6-0.2c-1.5,0-3.1,0.4-5,1.3l-0.3-3.2c1.9-0.7,3.7-1,5.5-1c2,0,3.6,0.4,4.8,1.2c1.5,1,2.3,2.5,2.3,4.4
				c0,2.4-1.2,4.1-3.5,5.2c2.3,0.9,3.5,2.7,3.5,5.4c0,2.1-0.8,3.7-2.4,4.9c-1.5,1.1-3.3,1.6-5.6,1.6s-4.2-0.3-5.7-0.9L55.3,248.2z"
				/>
		</g>
	</g>
	<g>
		<circle class="st0" cx="311.9" cy="26" r="20.7"/>
		<g>
			<rect x="292.4" y="0.3" class="st1" width="39" height="46.7"/>
			<path class="st2" d="M320,31.4h-3.1v5h-3.2v-5h-9.9v-2.8l9.5-14.6h3.6v14.4h3.1V31.4z M313.7,28.4v-10l-6.4,10H313.7z"/>
		</g>
	</g>
	<g>
		<circle class="st0" cx="173.9" cy="207.5" r="20.7"/>
		<g>
			<rect x="154.4" y="181.8" class="st1" width="39" height="46.7"/>
			<path class="st2" d="M171.4,198.6l-0.2,5.6c0.8-0.3,1.7-0.4,2.7-0.4c2.1,0,3.8,0.6,5.1,1.8s2,2.9,2,5c0,2.5-0.8,4.4-2.3,5.7
				c-1.4,1.3-3.4,1.9-5.8,1.9c-2,0-3.7-0.3-5-0.9v-3.2c1.6,0.8,3.3,1.1,5.2,1.1c1.4,0,2.6-0.3,3.5-1c0.9-0.8,1.4-1.8,1.4-3.2
				c0-2.9-1.6-4.3-4.8-4.3c-1.7,0-3.3,0.2-5,0.7l0.2-11.9H180v3L171.4,198.6L171.4,198.6z"/>
		</g>
	</g>
	<g>
		
			<ellipse transform="matrix(0.3162 -0.9487 0.9487 0.3162 34.0132 365.5759)" class="st0" cx="270.6" cy="159.2" rx="20.7" ry="20.7"/>
		<g>
			<rect x="251.1" y="133.5" class="st1" width="39" height="46.7"/>
			<path class="st2" d="M277.2,150.7c-1.2-0.5-2.5-0.7-3.9-0.7c-3.8,0-5.9,2.3-6.4,6.8c1.1-1.2,2.5-1.9,4.2-1.9
				c1.8,0,3.3,0.5,4.6,1.5c1.6,1.3,2.4,3.2,2.4,5.7c0,2.4-0.6,4.3-1.9,5.6c-1.3,1.4-3.1,2-5.4,2c-4.8,0-7.2-3.5-7.2-10.6
				c0-3.7,0.7-6.6,2.2-8.6c1.7-2.4,4.3-3.6,7.7-3.6c1.2,0,2.5,0.2,3.8,0.6L277.2,150.7z M271.1,158c-1.3,0-2.3,0.4-3,1.1
				s-1.1,1.7-1.1,3s0.3,2.4,1,3.3c0.7,1,1.7,1.5,2.9,1.5c1.3,0,2.3-0.4,3-1.3c0.7-0.8,1.1-1.9,1.1-3.2
				C274.9,159.5,273.6,158,271.1,158z"/>
		</g>
	</g>
	<g>
		<circle class="st0" cx="235.4" cy="301.7" r="20.7"/>
		<g>
			<rect x="215.9" y="276" class="st1" width="39" height="46.7"/>
			<path class="st2" d="M242.1,292.2l-8.2,19.9h-3.5l8.2-19.4h-10.2v-3h13.7V292.2z"/>
		</g>
	</g>
	<g>
		<path class="st3" d="M71.5,96c0,0-5,30.7-36.9,74.2"/>
		<path class="st0" d="M32.2,165l9,5.8c1.1,0.7,1,2.3-0.2,2.9l-9.5,4.8c-1.2,0.6-2.5-0.3-2.5-1.6l0.6-10.7
			C29.7,165,31.1,164.3,32.2,165z"/>
	</g>
	<g>
		<path class="st3" d="M200.7,217.8c0,0-1,20.4-9.2,37.9"/>
		<path class="st0" d="M188,250.6l9.8,4.3c1.2,0.5,1.4,2.2,0.3,2.9l-8.6,6.3c-1.1,0.8-2.6,0.1-2.7-1.2l-1.2-10.6
			C185.4,251.1,186.8,250.1,188,250.6z"/>
	</g>
	<g>
		<path class="st3" d="M237.1,255.5c0,0,20.2,20.4,29.5,37.3"/>
		<path class="st0" d="M261.6,293.9l8.6-6.2c1.1-0.8,2.6-0.1,2.7,1.2l1.1,10.6c0.1,1.3-1.2,2.3-2.4,1.7l-9.7-4.4
			C260.7,296.3,260.5,294.7,261.6,293.9z"/>
	</g>
	<g>
		<path class="st3" d="M295.7,50.8c0,0-11.4,19.6-49.1,34.6"/>
		<path class="st0" d="M250.3,77.9l3.1,10.2c0.4,1.3-0.7,2.4-2,2.1L241,87.8c-1.3-0.3-1.7-1.9-0.9-2.8l7.3-7.8
			C248.4,76.2,250,76.6,250.3,77.9z"/>
	</g>
	<path class="st4" d="M236.5,115.2c-0.3,1.5,0.2,3.2,1.3,4.3c1.1,1,2.6,1.5,4.1,1.5c2.4,0,5.1-0.6,7.4-1.3
		c33.1-11.8,64-21.3,92.5-28.4c10.7-2.4,16.2-4.2,16.2-5.4c-2.4-14.4-16.2-24.6-41.4-30.6c-1.2,1.2-2.4,3-3.6,5.4
		c-4.8,10.8-28.2,27-70.2,48.6l0,0c-1.3,0.9-2.6,1.8-3.8,2.9C238,113,236.8,114,236.5,115.2z"/>
	<path class="st4" d="M85.1,155.1c1.1-1.8,2.3-3.6,3.4-5.3c2.7-4.1,5.4-7.9,5.8-8.5c5.7-8.5,12.8-21.4,21.4-38.5
		c9.6-19.2,16.2-30.6,19.8-34.2C133,51.9,119.3,40.5,94,34.5c-1.2,2.4-1.2,4.8,0,7.2c3.6,12,1.2,30.6-7.2,55.8
		C70,147.9,43,194.2,5.8,236.2c-4.8,6-6.6,9.6-5.4,10.8c2.4,1.2,6.6-0.6,12.6-5.4C37,226,61,197.2,85.1,155.1L85.1,155.1z"/>
	<path class="st4" d="M159.3,284c-2.4,1.2-10.2,7.2-23.4,18c-15.6,10.8-25.8,18-30.6,21.6c1.2-28.8,3-54,5.4-75.6
		c0-8.4,1.8-16.8,5.4-25.2c1.2-7.2,1.2-12,0-14.4c-13.2-13.2-24.6-18.6-34.2-16.2c-1.2,1.2-0.6,4.8,1.8,10.8
		c4.8,13.2,7.2,27,7.2,41.4c-1.2,19.2-1.8,37.2-1.8,54c-1.2,15.6-7.2,30.6-18,45c-4.8,3.6-7.2,6.6-7.2,9
		c-1.2,19.2,3.6,30.6,14.4,34.2c2.4,0,4.8-2.4,7.2-7.2c7.2-12,16.2-23.4,27-34.2C159.3,293.6,174.9,273.2,159.3,284z"/>
	<path class="st5" d="M93.2,139.3L93.2,139.3C93.3,139.2,93.3,139.2,93.2,139.3z"/>
	<path class="st4" d="M129.1,147.1c12-3.6,19.2-5.4,21.6-5.4c1.2,0-1.2,9-7.2,27c-9.6,24-10.8,31.8-3.6,23.4
		c16.8-18,32.4-31.8,46.8-41.4c3.6-3.6,5.4-6,5.4-7.2c-3.6-9.6-15.6-18-36-25.2c-3.6,0-8.4,2.4-14.4,7.2
		c-14.4,9.6-31.2,16.2-50.4,19.8c-0.3,0.5-1.9,2.7-3.8,5.6c-1.2,1.8-2.4,3.6-3.4,5.3C91.3,158.6,106.3,155.5,129.1,147.1z"/>
	<path class="st5" d="M89.4,144.9c-1.1,1.7-2.3,3.5-3.4,5.3C87.1,148.5,88.3,146.7,89.4,144.9z"/>
	<g>
		<path class="st4" d="M236.3,220.4c0.3-1.5,0.6-3,0.8-4.5c0.8-5,1.2-10.1,1.8-15.1c0.4-3.2,1.3-6.4,1.6-9.6c0.4-3.5,0.9-7,1.3-10.4
			c1.4-11,2.7-21.9,4.1-32.9c0.9-7,1.8-14,2.6-21c0-0.1,0-0.1,0-0.2l0.2-1.6c0.6-5.3-0.2-8.2-0.2-8.2c-0.4-2.3-3.6-3.9-5.9-4.7
			c-12.8-4.5-22.7-5.6-29.7-3.3c-1.2,1.2-1.2,2.4,0,3.6c3.6,8.4,5.4,26.4,5.4,54c-1.2,78-31.2,150.1-90,216.1
			c-6,7.2-1.8,6.6,12.6-1.8c3-1.8,5.8-4.6,8.5-6.9c2.8-2.4,5.6-5,8.3-7.5c5.5-5.2,10.7-10.8,15.6-16.6c10.3-12.1,19.4-25.2,27.3-39
			c8.6-15,15.8-30.8,21.9-47c2.8-7.5,5.4-15,7.8-22.6C232.6,234.3,234.8,227.4,236.3,220.4z"/>
	</g>
	<g>
		<path class="st5" d="M300.4,315.1C300.4,315.1,300.3,315.1,300.4,315.1C300.4,315.2,300.5,315.2,300.4,315.1z"/>
	</g>
	<g>
		<path class="st4" d="M314.9,292.2l-2.7,3.9C313.1,294.9,314,293.6,314.9,292.2z"/>
		<path class="st4" d="M324.8,164.6c-1.2,0-4.2,1.2-9,3.6c-16.8,12-42.2,21-75.8,27l-1.6,9c12,2.4,30.6,0.6,55.7-5.4
			c13.2-2.4,20.4-3,21.6-1.8c1.1,1.1,1.4,4.8,1.7,6.3c0.4,2.5,0.6,5.1,0.6,7.6c0,6.3-0.9,12.6-2.2,18.7c-2.1,10.1-5.3,19.9-8.9,29.6
			c-3.5,9.4-7,18.9-12.3,27.5c-4.5,7.4-9.6,14.2-15.6,20.4c-5.4,5.6-11.1,10.8-17.1,15.8c-13.9,11.5-28.9,21.4-44.5,30.4
			c-6.7,3.9-13.6,7.7-20.5,11.2c-9.6,4.8-8.4,6.6,3.6,5.4c8.5-0.9,17.5-4.3,25.6-7.1c8.3-2.9,16.4-6.4,24.2-10.4
			c15.5-8,29.3-18.1,42.3-29.8c6.6-5.9,11.8-13,16.4-20.6c4.7-7.9,9.8-15.7,13.5-24.1c3.4-7.5,6.2-15.2,8.8-22.9
			c2.2-6.7,4-13.5,6.1-20.2c1.2-3.6,2.4-6.6,3.6-9c4.8-14.4,10.8-25.2,18-32.4c2.4-2.4,3.6-4.2,3.6-5.4
			C359,177.3,346.4,169.5,324.8,164.6z"/>
	</g>
	<g>
		<path class="st4" d="M438.2,366.3c-44.3-11.9-82.8-32.1-115.4-60.5c-1.7-1.5-3.3-3-5-4.5c-1.6-1.4-3.1-2.8-4.6-4.3
			c-2-2-4-4.1-6.1-6c-4.3-3.8-10.8-11.1-11.2-11.5c-0.6-0.8-1.3-1.6-1.9-2.3c-1.2-1.5-2.4-3-3.6-4.5c-2.5-3.1-4.9-6.2-7.3-9.4
			c-1.7-2.2-3.4-4.5-5.1-6.7c-12-18-26.4-28.2-43.2-30.6c0,0-1.9,7.4-1.8,7.2c0,0.1,8.1,6.6,8.7,7.1c4.2,4,8.2,8.3,12.1,12.7
			c12.6,14.2,24.1,29.2,35.8,44c-0.4-0.4-0.7-0.8-1.1-1.3c5.7,6.7,10.1,13.9,14.8,21.3c4.9,7.7,10.6,15,16.1,22.3
			c13.2,18,22.2,29.4,27,34.2c-1.2,8.4,30,10.2,93.6,5.4c6-1.2,9-3,9-5.4C449,371.2,445.4,368.8,438.2,366.3z"/>
		<path class="st4" d="M290,297.7l-1.9-2.3C288.1,295.4,289.6,297.1,290,297.7z"/>
	</g>
</g>
<g>
	<path class="st3" d="M302.4,159.2c0,0,7.7-4.6,16.1-8.6c2.7-1.2,5.5-2.1,8.3-2.6c2.6-0.4,6.2-0.2,10.3,0.6
		c14.1,2.8,26.6,11.2,34.8,23c5.1,7.4,9.1,16.6,4.5,23.8c0,0-15.2,21.6-17.9,32.6"/>
	<path class="st0" d="M352.1,224.2l0.3,10.8c0,1.3,1.5,2.1,2.6,1.4l9.2-5.7c1-0.6,1-2.2-0.1-2.8l-9.7-5.3
		C353.4,222.1,352.1,222.9,352.1,224.2z"/>
</g>
<g>
	<g>
		<path class="st3" d="M78.7,265.7c1,18.2,1,40-8,56.3c-5.2,9.6-13.8,17.5-16.6,28c-2,7.4-0.9,15.3,1.1,22.7
			c3,11,10.5,24.9,23.1,26.9c3.5,0.6,7-0.6,10-2.5s5.4-4.6,7.7-7.2"/>
	</g>
	<path class="st0" d="M98.4,395.1l-8.4-6.5c-1-0.8-0.8-2.4,0.4-2.9l9.9-4c1.2-0.5,2.5,0.5,2.3,1.8l-1.4,10.6
		C101,395.3,99.5,395.9,98.4,395.1z"/>
</g>
<g>
	<path class="st3" d="M123.9,122c0,0,10.4-5.9,18.9-10.5c0.9-0.5,1.9-1,2.9-1.4c2.2-0.9,4.3-1.7,6.6-2.1c2.6-0.4,6.2-0.7,10.3,0.1
		c14.1,2.8,26.6,11.2,34.8,23c0.1,0.1,0.1,0.2,0.2,0.2c6.8,10,4.6,23.6-4.9,31.1c-3.1,2.4-7,5.5-12.1,9.3"/>
	<path class="st0" d="M177.2,165.8l-3.9,10.1c-0.5,1.2,0.6,2.5,1.9,2.3l10.7-1.7c1.2-0.2,1.8-1.6,1-2.6l-6.9-8.6
		C179.2,164.3,177.7,164.6,177.2,165.8z"/>
</g>
</svg>
