<svg width="16" height="16" viewBox="0 0 16 16" fill="none" xmlns="http://www.w3.org/2000/svg">
<mask id="mask0_2262_24389" style="mask-type:alpha" maskUnits="userSpaceOnUse" x="0" y="0" width="16" height="16">
<rect width="16" height="16" fill="#D9D9D9"/>
</mask>
<g mask="url(#mask0_2262_24389)">
<path d="M13.2483 0.949856C13.2483 0.949856 18.7967 13.056 5.03402 12.6887L5.04186 12.6775C-0.154356 0.000678426 13.2575 0.936796 13.2575 0.936796L13.2483 0.949856Z" fill="white"/>
<path d="M3.18575 15.306C2.99759 15.1743 2.95375 14.9157 3.0843 14.7292L11.6433 2.49776C11.7751 2.30932 12.0336 2.2651 12.2199 2.39545C12.4062 2.52581 12.4519 2.78569 12.3214 2.97226L3.7624 15.2037C3.63054 15.3921 3.37204 15.4363 3.18575 15.306Z" fill="white"/>
<path d="M8.79258 7.15484C8.70502 7.09357 8.64283 7.00002 8.62145 6.88779L8.04344 3.60128C8.00387 3.37626 8.154 3.16171 8.38027 3.11993C8.60522 3.08002 8.81946 3.22993 8.8609 3.45626L9.43891 6.74277C9.47848 6.96779 9.32835 7.18234 9.10208 7.22412C8.98802 7.24435 8.88013 7.2161 8.79258 7.15484Z" fill="white"/>
<path d="M7.619 8.97543C7.53145 8.91417 7.46925 8.82062 7.44788 8.70839C7.40831 8.48338 7.55844 8.26882 7.7847 8.22705L11.2636 7.60985C11.4886 7.56994 11.7028 7.71985 11.7443 7.94617C11.7838 8.17118 11.6337 8.38574 11.4074 8.42751L7.92851 9.04471C7.81445 9.06495 7.70656 9.0367 7.619 8.97543Z" fill="white"/>
<path d="M6.17929 10.886C6.09173 10.8247 6.02954 10.7312 6.00817 10.619L5.42626 7.31027C5.38668 7.08525 5.53682 6.87069 5.76308 6.82892C5.98804 6.78901 6.20227 6.93892 6.24371 7.16524L6.82562 10.4739C6.8652 10.699 6.71506 10.9135 6.4888 10.9553C6.37473 10.9755 6.26685 10.9473 6.17929 10.886Z" fill="white"/>
</g>
</svg>
