<svg width="48" height="52" viewBox="0 0 48 52" fill="none" xmlns="http://www.w3.org/2000/svg">
<mask id="mask0_2262_24410" style="mask-type:alpha" maskUnits="userSpaceOnUse" x="0" y="0" width="48" height="52">
<rect width="48" height="52" fill="#D9D9D9"/>
</mask>
<g mask="url(#mask0_2262_24410)">
<path d="M2.95595 48.08C1.59062 47.6107 1.20661 46.6507 1.80394 45.2C3.16928 42.0427 4.57728 38.736 6.02794 35.28C7.47861 31.824 8.90794 28.3253 10.3159 24.784C11.7666 21.2 13.2173 17.6587 14.668 14.16C16.1186 10.6613 17.5266 7.312 18.892 4.112C19.1906 3.42933 19.4253 2.91733 19.596 2.576C19.8093 2.192 20.2573 2 20.94 2H28.108C28.7906 2 29.2386 2.192 29.452 2.576C29.708 2.91733 29.9426 3.42933 30.156 4.112C32.972 10.5547 35.7453 17.168 38.4759 23.952C41.2493 30.736 44.1719 37.8613 47.2439 45.328C47.8413 46.7787 47.4573 47.7387 46.0919 48.208L40.0759 49.936C38.7106 50.4053 37.772 50.0213 37.26 48.784C36.5346 47.12 35.8093 45.4133 35.0839 43.664C34.3586 41.872 33.6333 40.016 32.9079 38.096L17.292 38.032C16.5666 39.952 15.8413 41.808 15.116 43.6C14.4333 45.392 13.7293 47.1413 13.004 48.848C12.492 50.1707 11.5533 50.5547 10.1879 50L2.95595 48.08ZM29.068 28.304L24.844 17.616C24.204 19.408 23.564 21.2 22.924 22.992C22.284 24.7413 21.6226 26.512 20.94 28.304H29.068Z" fill="white"/>
</g>
</svg>
